<mxfile host="app.diagrams.net" agent="Mozilla/5.0 (Windows NT 10.0; Win64; x64) AppleWebKit/537.36 (KHTML, like Gecko) Chrome/136.0.0.0 Safari/537.36" version="27.0.2">
  <diagram name="Page-1" id="PZ0LXFdrZIFgXDtz3HmH">
    <mxGraphModel dx="7965" dy="4385" grid="1" gridSize="10" guides="1" tooltips="1" connect="1" arrows="1" fold="1" page="1" pageScale="1" pageWidth="850" pageHeight="1100" math="0" shadow="0">
      <root>
        <mxCell id="0" />
        <mxCell id="1" parent="0" />
        <mxCell id="QricHCHU_unaOszH9Re6-18" style="edgeStyle=orthogonalEdgeStyle;rounded=0;orthogonalLoop=1;jettySize=auto;html=1;exitX=0;exitY=1;exitDx=0;exitDy=0;strokeWidth=5;fillColor=#a20025;strokeColor=#6F0000;" parent="1" source="QricHCHU_unaOszH9Re6-4" target="QricHCHU_unaOszH9Re6-15" edge="1">
          <mxGeometry relative="1" as="geometry" />
        </mxCell>
        <mxCell id="QricHCHU_unaOszH9Re6-19" value="" style="edgeStyle=orthogonalEdgeStyle;rounded=0;orthogonalLoop=1;jettySize=auto;html=1;strokeWidth=5;fillColor=#a20025;strokeColor=#6F0000;" parent="1" source="QricHCHU_unaOszH9Re6-4" target="QricHCHU_unaOszH9Re6-16" edge="1">
          <mxGeometry relative="1" as="geometry" />
        </mxCell>
        <mxCell id="QricHCHU_unaOszH9Re6-21" style="edgeStyle=orthogonalEdgeStyle;rounded=0;orthogonalLoop=1;jettySize=auto;html=1;exitX=1;exitY=1;exitDx=0;exitDy=0;entryX=0.5;entryY=0;entryDx=0;entryDy=0;fillColor=#a20025;strokeColor=#6F0000;strokeWidth=5;" parent="1" source="QricHCHU_unaOszH9Re6-4" target="QricHCHU_unaOszH9Re6-17" edge="1">
          <mxGeometry relative="1" as="geometry" />
        </mxCell>
        <mxCell id="QricHCHU_unaOszH9Re6-4" value="&lt;font style=&quot;font-size: 20px;&quot;&gt;KORISNIK&lt;/font&gt;" style="rounded=1;whiteSpace=wrap;html=1;" parent="1" vertex="1">
          <mxGeometry x="-740" y="115" width="150" height="60" as="geometry" />
        </mxCell>
        <mxCell id="QricHCHU_unaOszH9Re6-5" value="&lt;font style=&quot;font-size: 20px;&quot;&gt;PRIMALAC&lt;/font&gt;" style="rounded=1;whiteSpace=wrap;html=1;" parent="1" vertex="1">
          <mxGeometry x="400" y="100" width="160" height="60" as="geometry" />
        </mxCell>
        <mxCell id="QricHCHU_unaOszH9Re6-28" style="edgeStyle=orthogonalEdgeStyle;rounded=0;orthogonalLoop=1;jettySize=auto;html=1;exitX=0.75;exitY=1;exitDx=0;exitDy=0;entryX=0;entryY=0.25;entryDx=0;entryDy=0;fillColor=#a20025;strokeColor=#6F0000;strokeWidth=5;" parent="1" source="QricHCHU_unaOszH9Re6-6" target="QricHCHU_unaOszH9Re6-26" edge="1">
          <mxGeometry relative="1" as="geometry" />
        </mxCell>
        <mxCell id="QricHCHU_unaOszH9Re6-6" value="&lt;font style=&quot;font-size: 20px;&quot;&gt;BANKA&lt;/font&gt;" style="rounded=1;whiteSpace=wrap;html=1;" parent="1" vertex="1">
          <mxGeometry x="260" y="270" width="120" height="60" as="geometry" />
        </mxCell>
        <mxCell id="QricHCHU_unaOszH9Re6-10" value="&lt;font style=&quot;font-size: 20px;&quot;&gt;1&lt;/font&gt;" style="text;html=1;align=center;verticalAlign=middle;resizable=0;points=[];autosize=1;strokeColor=none;fillColor=none;" parent="1" vertex="1">
          <mxGeometry x="-620" y="130" width="30" height="40" as="geometry" />
        </mxCell>
        <mxCell id="QricHCHU_unaOszH9Re6-13" value="&lt;font style=&quot;font-size: 20px;&quot;&gt;3&lt;/font&gt;&lt;div&gt;&lt;font style=&quot;font-size: 20px;&quot;&gt;&lt;br&gt;&lt;/font&gt;&lt;/div&gt;" style="text;html=1;align=center;verticalAlign=middle;resizable=0;points=[];autosize=1;strokeColor=none;fillColor=none;" parent="1" vertex="1">
          <mxGeometry x="350" y="280" width="30" height="60" as="geometry" />
        </mxCell>
        <mxCell id="QricHCHU_unaOszH9Re6-14" value="&lt;font style=&quot;font-size: 20px;&quot;&gt;2&lt;/font&gt;&lt;div&gt;&lt;span style=&quot;font-size: 20px;&quot;&gt;&lt;br&gt;&lt;/span&gt;&lt;div&gt;&lt;font style=&quot;font-size: 20px;&quot;&gt;&lt;br&gt;&lt;/font&gt;&lt;/div&gt;&lt;/div&gt;" style="text;html=1;align=center;verticalAlign=middle;resizable=0;points=[];autosize=1;strokeColor=none;fillColor=none;" parent="1" vertex="1">
          <mxGeometry x="530" y="110" width="30" height="90" as="geometry" />
        </mxCell>
        <mxCell id="QricHCHU_unaOszH9Re6-15" value="&lt;font style=&quot;font-size: 20px;&quot;&gt;ZAHTEV ZA PLACANJE&amp;nbsp;&lt;/font&gt;" style="rounded=1;whiteSpace=wrap;html=1;" parent="1" vertex="1">
          <mxGeometry x="-1050" y="270" width="170" height="60" as="geometry" />
        </mxCell>
        <mxCell id="QricHCHU_unaOszH9Re6-16" value="&lt;font style=&quot;font-size: 20px;&quot;&gt;ZAHTEV ZA SLANJE NOVCA&amp;nbsp;&lt;/font&gt;" style="rounded=1;whiteSpace=wrap;html=1;" parent="1" vertex="1">
          <mxGeometry x="-760" y="320" width="170" height="60" as="geometry" />
        </mxCell>
        <mxCell id="QricHCHU_unaOszH9Re6-17" value="&lt;font style=&quot;font-size: 20px;&quot;&gt;PODESAVANJE AUTOMATSKOG PLACANJA&amp;nbsp;&lt;/font&gt;" style="rounded=1;whiteSpace=wrap;html=1;" parent="1" vertex="1">
          <mxGeometry x="-490" y="250" width="180" height="90" as="geometry" />
        </mxCell>
        <mxCell id="QricHCHU_unaOszH9Re6-23" style="edgeStyle=orthogonalEdgeStyle;rounded=0;orthogonalLoop=1;jettySize=auto;html=1;exitX=0;exitY=0;exitDx=0;exitDy=0;fillColor=#a20025;strokeColor=#6F0000;strokeWidth=5;" parent="1" source="QricHCHU_unaOszH9Re6-22" edge="1">
          <mxGeometry relative="1" as="geometry">
            <mxPoint x="490" y="170" as="targetPoint" />
          </mxGeometry>
        </mxCell>
        <mxCell id="QricHCHU_unaOszH9Re6-22" value="&lt;font style=&quot;font-size: 20px;&quot;&gt;POTVRDA O PRIJEMU NOVCA&lt;/font&gt;" style="rounded=1;whiteSpace=wrap;html=1;" parent="1" vertex="1">
          <mxGeometry x="570" y="240" width="150" height="90" as="geometry" />
        </mxCell>
        <mxCell id="QricHCHU_unaOszH9Re6-24" value="&lt;font style=&quot;font-size: 20px;&quot;&gt;AUTORIZACIJA KARTICE&lt;/font&gt;" style="rounded=1;whiteSpace=wrap;html=1;" parent="1" vertex="1">
          <mxGeometry x="-30" y="480" width="160" height="80" as="geometry" />
        </mxCell>
        <mxCell id="QricHCHU_unaOszH9Re6-25" style="edgeStyle=orthogonalEdgeStyle;rounded=0;orthogonalLoop=1;jettySize=auto;html=1;exitX=0.5;exitY=0;exitDx=0;exitDy=0;entryX=0.37;entryY=1.056;entryDx=0;entryDy=0;entryPerimeter=0;strokeWidth=5;fillColor=#a20025;strokeColor=#6F0000;" parent="1" source="QricHCHU_unaOszH9Re6-24" target="QricHCHU_unaOszH9Re6-6" edge="1">
          <mxGeometry relative="1" as="geometry" />
        </mxCell>
        <mxCell id="QricHCHU_unaOszH9Re6-26" value="&lt;font style=&quot;font-size: 20px;&quot;&gt;IZVRSENJE PLACANJA&lt;/font&gt;" style="rounded=1;whiteSpace=wrap;html=1;" parent="1" vertex="1">
          <mxGeometry x="200" y="560" width="120" height="60" as="geometry" />
        </mxCell>
        <mxCell id="QricHCHU_unaOszH9Re6-27" style="edgeStyle=orthogonalEdgeStyle;rounded=0;orthogonalLoop=1;jettySize=auto;html=1;exitX=0;exitY=1;exitDx=0;exitDy=0;entryX=0.129;entryY=-0.049;entryDx=0;entryDy=0;entryPerimeter=0;fillColor=#a20025;strokeColor=#6F0000;strokeWidth=5;" parent="1" source="QricHCHU_unaOszH9Re6-6" target="QricHCHU_unaOszH9Re6-24" edge="1">
          <mxGeometry relative="1" as="geometry" />
        </mxCell>
        <mxCell id="QricHCHU_unaOszH9Re6-29" style="edgeStyle=orthogonalEdgeStyle;rounded=0;orthogonalLoop=1;jettySize=auto;html=1;exitX=0.25;exitY=0;exitDx=0;exitDy=0;entryX=1.014;entryY=0.438;entryDx=0;entryDy=0;entryPerimeter=0;strokeWidth=5;fillColor=#a20025;strokeColor=#6F0000;" parent="1" source="QricHCHU_unaOszH9Re6-26" target="QricHCHU_unaOszH9Re6-13" edge="1">
          <mxGeometry relative="1" as="geometry" />
        </mxCell>
        <mxCell id="QricHCHU_unaOszH9Re6-41" value="&lt;font style=&quot;font-size: 70px;&quot;&gt;DIJAGRAM NIVOA 0&lt;/font&gt;" style="text;html=1;align=center;verticalAlign=middle;resizable=0;points=[];autosize=1;strokeColor=none;fillColor=none;" parent="1" vertex="1">
          <mxGeometry x="-1630" y="40" width="680" height="100" as="geometry" />
        </mxCell>
        <mxCell id="QricHCHU_unaOszH9Re6-43" value="g" style="group" parent="1" vertex="1" connectable="0">
          <mxGeometry x="-670" y="2510" width="150" height="230" as="geometry" />
        </mxCell>
        <mxCell id="QricHCHU_unaOszH9Re6-37" value="&lt;font style=&quot;font-size: 20px;&quot;&gt;AUTOMATSKA PLACANJA&amp;nbsp;&lt;/font&gt;" style="shape=cylinder3;whiteSpace=wrap;html=1;boundedLbl=1;backgroundOutline=1;size=15;" parent="QricHCHU_unaOszH9Re6-43" vertex="1">
          <mxGeometry width="150" height="230" as="geometry" />
        </mxCell>
        <mxCell id="QricHCHU_unaOszH9Re6-40" value="&lt;font style=&quot;font-size: 20px;&quot;&gt;D3&lt;/font&gt;" style="text;html=1;align=center;verticalAlign=middle;resizable=0;points=[];autosize=1;strokeColor=none;fillColor=none;" parent="QricHCHU_unaOszH9Re6-43" vertex="1">
          <mxGeometry x="50" y="170" width="50" height="40" as="geometry" />
        </mxCell>
        <mxCell id="QricHCHU_unaOszH9Re6-44" value="" style="group" parent="1" vertex="1" connectable="0">
          <mxGeometry x="-1220" y="1150" width="150" height="240" as="geometry" />
        </mxCell>
        <mxCell id="QricHCHU_unaOszH9Re6-34" value="&lt;font style=&quot;font-size: 20px;&quot;&gt;TRANSAKCIJE&lt;/font&gt;" style="shape=cylinder3;whiteSpace=wrap;html=1;boundedLbl=1;backgroundOutline=1;size=15;" parent="QricHCHU_unaOszH9Re6-44" vertex="1">
          <mxGeometry width="150" height="239.99999999999997" as="geometry" />
        </mxCell>
        <mxCell id="QricHCHU_unaOszH9Re6-38" value="&lt;font style=&quot;font-size: 20px;&quot;&gt;D1&lt;/font&gt;" style="text;html=1;align=center;verticalAlign=middle;resizable=0;points=[];autosize=1;strokeColor=none;fillColor=none;" parent="QricHCHU_unaOszH9Re6-44" vertex="1">
          <mxGeometry x="55" y="152.72727272727272" width="50" height="40" as="geometry" />
        </mxCell>
        <mxCell id="QricHCHU_unaOszH9Re6-46" value="" style="group" parent="1" vertex="1" connectable="0">
          <mxGeometry x="-1210" y="1570" width="140" height="210" as="geometry" />
        </mxCell>
        <mxCell id="QricHCHU_unaOszH9Re6-35" value="&lt;font style=&quot;font-size: 20px;&quot;&gt;KARTICE&lt;/font&gt;" style="shape=cylinder3;whiteSpace=wrap;html=1;boundedLbl=1;backgroundOutline=1;size=15;" parent="QricHCHU_unaOszH9Re6-46" vertex="1">
          <mxGeometry width="140" height="210" as="geometry" />
        </mxCell>
        <mxCell id="QricHCHU_unaOszH9Re6-39" value="&lt;font style=&quot;font-size: 20px;&quot;&gt;D2&lt;/font&gt;" style="text;html=1;align=center;verticalAlign=middle;resizable=0;points=[];autosize=1;strokeColor=none;fillColor=none;" parent="QricHCHU_unaOszH9Re6-46" vertex="1">
          <mxGeometry x="45" y="140" width="50" height="40" as="geometry" />
        </mxCell>
        <mxCell id="QricHCHU_unaOszH9Re6-49" value="&lt;font style=&quot;font-size: 70px;&quot;&gt;DIJAGRAM NIVOA 1&lt;/font&gt;&lt;div&gt;&lt;font style=&quot;font-size: 70px;&quot;&gt;&lt;br&gt;&lt;/font&gt;&lt;/div&gt;" style="text;html=1;align=center;verticalAlign=middle;resizable=0;points=[];autosize=1;strokeColor=none;fillColor=none;" parent="1" vertex="1">
          <mxGeometry x="-1390" y="830" width="680" height="180" as="geometry" />
        </mxCell>
        <mxCell id="QricHCHU_unaOszH9Re6-50" value="&lt;div&gt;&lt;font style=&quot;font-size: 70px;&quot;&gt;DEKOMPOZICIJA PROCESA 0&lt;/font&gt;&lt;/div&gt;" style="text;html=1;align=center;verticalAlign=middle;resizable=0;points=[];autosize=1;strokeColor=none;fillColor=none;" parent="1" vertex="1">
          <mxGeometry x="-1565" y="980" width="1010" height="100" as="geometry" />
        </mxCell>
        <mxCell id="QricHCHU_unaOszH9Re6-51" value="" style="group" parent="1" vertex="1" connectable="0">
          <mxGeometry x="-280" width="390" height="200" as="geometry" />
        </mxCell>
        <mxCell id="EFb9O_KWn0DuL2CM1pZe-8" style="edgeStyle=orthogonalEdgeStyle;rounded=0;orthogonalLoop=1;jettySize=auto;html=1;exitX=1;exitY=0.5;exitDx=0;exitDy=0;strokeWidth=5;fillColor=#1ba1e2;strokeColor=#006EAF;" edge="1" parent="QricHCHU_unaOszH9Re6-51" source="QricHCHU_unaOszH9Re6-1">
          <mxGeometry relative="1" as="geometry">
            <mxPoint x="670" y="130" as="targetPoint" />
          </mxGeometry>
        </mxCell>
        <mxCell id="QricHCHU_unaOszH9Re6-1" value="" style="ellipse;whiteSpace=wrap;html=1;" parent="QricHCHU_unaOszH9Re6-51" vertex="1">
          <mxGeometry width="390" height="200" as="geometry" />
        </mxCell>
        <mxCell id="QricHCHU_unaOszH9Re6-2" value="&lt;font style=&quot;font-size: 19px;&quot;&gt;MOBILNA_APLIKACIJA_ZA_PLACANJE&lt;/font&gt;" style="text;html=1;align=center;verticalAlign=middle;resizable=0;points=[];autosize=1;strokeColor=none;fillColor=none;" parent="QricHCHU_unaOszH9Re6-51" vertex="1">
          <mxGeometry x="20" y="60" width="370" height="40" as="geometry" />
        </mxCell>
        <mxCell id="QricHCHU_unaOszH9Re6-3" value="&lt;font style=&quot;font-size: 30px;&quot;&gt;0&lt;/font&gt;" style="text;html=1;align=center;verticalAlign=middle;resizable=0;points=[];autosize=1;strokeColor=none;fillColor=none;" parent="QricHCHU_unaOszH9Re6-51" vertex="1">
          <mxGeometry x="170" y="115" width="40" height="50" as="geometry" />
        </mxCell>
        <mxCell id="QricHCHU_unaOszH9Re6-58" value="" style="group" parent="1" vertex="1" connectable="0">
          <mxGeometry x="-670" y="1070" width="250" height="130" as="geometry" />
        </mxCell>
        <mxCell id="QricHCHU_unaOszH9Re6-56" value="&lt;font style=&quot;font-size: 20px;&quot;&gt;SLANJE NOVCA&amp;nbsp;&lt;/font&gt;" style="ellipse;whiteSpace=wrap;html=1;" parent="QricHCHU_unaOszH9Re6-58" vertex="1">
          <mxGeometry width="250.00000000000006" height="124.34782608695652" as="geometry" />
        </mxCell>
        <mxCell id="QricHCHU_unaOszH9Re6-57" value="&lt;font style=&quot;font-size: 30px;&quot;&gt;1&lt;/font&gt;" style="text;html=1;align=center;verticalAlign=middle;resizable=0;points=[];autosize=1;strokeColor=none;fillColor=none;container=1;" parent="QricHCHU_unaOszH9Re6-58" vertex="1">
          <mxGeometry x="101.1904761904762" y="73.47826086956522" width="40" height="50" as="geometry" />
        </mxCell>
        <mxCell id="QricHCHU_unaOszH9Re6-62" value="" style="group" parent="1" vertex="1" connectable="0">
          <mxGeometry x="-170" y="1130" width="230" height="140" as="geometry" />
        </mxCell>
        <mxCell id="QricHCHU_unaOszH9Re6-60" value="&lt;font style=&quot;font-size: 20px;&quot;&gt;PLCACANJE RACUNA&amp;nbsp;&lt;/font&gt;" style="ellipse;whiteSpace=wrap;html=1;" parent="QricHCHU_unaOszH9Re6-62" vertex="1">
          <mxGeometry width="230" height="140" as="geometry" />
        </mxCell>
        <mxCell id="QricHCHU_unaOszH9Re6-61" value="&lt;font style=&quot;font-size: 30px;&quot;&gt;2&lt;/font&gt;" style="text;html=1;align=center;verticalAlign=middle;resizable=0;points=[];autosize=1;strokeColor=none;fillColor=none;" parent="QricHCHU_unaOszH9Re6-62" vertex="1">
          <mxGeometry x="90" y="90" width="40" height="50" as="geometry" />
        </mxCell>
        <mxCell id="QricHCHU_unaOszH9Re6-65" value="" style="group" parent="1" vertex="1" connectable="0">
          <mxGeometry x="250" y="1330" width="260" height="170" as="geometry" />
        </mxCell>
        <mxCell id="QricHCHU_unaOszH9Re6-63" value="&lt;font style=&quot;font-size: 20px;&quot;&gt;AUTOMASTKO PLACANJE&amp;nbsp;&lt;/font&gt;" style="ellipse;whiteSpace=wrap;html=1;" parent="QricHCHU_unaOszH9Re6-65" vertex="1">
          <mxGeometry width="260" height="140" as="geometry" />
        </mxCell>
        <mxCell id="QricHCHU_unaOszH9Re6-64" value="&lt;font style=&quot;font-size: 30px;&quot;&gt;3&lt;/font&gt;&lt;div style=&quot;font-size: 30px;&quot;&gt;&lt;br&gt;&lt;/div&gt;" style="text;html=1;align=center;verticalAlign=middle;resizable=0;points=[];autosize=1;strokeColor=none;fillColor=none;" parent="QricHCHU_unaOszH9Re6-65" vertex="1">
          <mxGeometry x="110" y="80" width="40" height="90" as="geometry" />
        </mxCell>
        <mxCell id="QricHCHU_unaOszH9Re6-68" value="" style="group" parent="1" vertex="1" connectable="0">
          <mxGeometry x="-310" y="1790" width="240" height="180" as="geometry" />
        </mxCell>
        <mxCell id="QricHCHU_unaOszH9Re6-66" value="&lt;font style=&quot;font-size: 20px;&quot;&gt;UPRAVLJANJE KARTICAMA&lt;/font&gt;" style="ellipse;whiteSpace=wrap;html=1;" parent="QricHCHU_unaOszH9Re6-68" vertex="1">
          <mxGeometry width="240" height="140" as="geometry" />
        </mxCell>
        <mxCell id="QricHCHU_unaOszH9Re6-67" value="&lt;font style=&quot;font-size: 30px;&quot;&gt;4&lt;/font&gt;&lt;div style=&quot;font-size: 30px;&quot;&gt;&lt;br&gt;&lt;/div&gt;" style="text;html=1;align=center;verticalAlign=middle;resizable=0;points=[];autosize=1;strokeColor=none;fillColor=none;" parent="QricHCHU_unaOszH9Re6-68" vertex="1">
          <mxGeometry x="97.14285714285714" y="90" width="40" height="90" as="geometry" />
        </mxCell>
        <mxCell id="QricHCHU_unaOszH9Re6-72" value="" style="group" parent="1" vertex="1" connectable="0">
          <mxGeometry x="-910" y="1610" width="240" height="150" as="geometry" />
        </mxCell>
        <mxCell id="QricHCHU_unaOszH9Re6-70" value="&lt;font style=&quot;font-size: 20px;&quot;&gt;PREGLED ISTORIJE&lt;/font&gt;" style="ellipse;whiteSpace=wrap;html=1;" parent="QricHCHU_unaOszH9Re6-72" vertex="1">
          <mxGeometry width="240" height="150" as="geometry" />
        </mxCell>
        <mxCell id="QricHCHU_unaOszH9Re6-71" value="&lt;font style=&quot;font-size: 30px;&quot;&gt;5&lt;/font&gt;" style="text;html=1;align=center;verticalAlign=middle;resizable=0;points=[];autosize=1;strokeColor=none;fillColor=none;container=1;" parent="QricHCHU_unaOszH9Re6-72" vertex="1">
          <mxGeometry x="110" y="92.30769230769229" width="40" height="50" as="geometry" />
        </mxCell>
        <mxCell id="QricHCHU_unaOszH9Re6-73" style="edgeStyle=orthogonalEdgeStyle;rounded=0;orthogonalLoop=1;jettySize=auto;html=1;exitX=0;exitY=0.5;exitDx=0;exitDy=0;fillColor=#60a917;strokeColor=#2D7600;strokeWidth=5;" parent="1" source="QricHCHU_unaOszH9Re6-56" target="QricHCHU_unaOszH9Re6-34" edge="1">
          <mxGeometry relative="1" as="geometry" />
        </mxCell>
        <mxCell id="QricHCHU_unaOszH9Re6-74" style="edgeStyle=orthogonalEdgeStyle;rounded=0;orthogonalLoop=1;jettySize=auto;html=1;exitX=0;exitY=1;exitDx=0;exitDy=0;entryX=1;entryY=0.5;entryDx=0;entryDy=0;entryPerimeter=0;fillColor=#60a917;strokeColor=#2D7600;strokeWidth=5;" parent="1" source="QricHCHU_unaOszH9Re6-60" target="QricHCHU_unaOszH9Re6-34" edge="1">
          <mxGeometry relative="1" as="geometry" />
        </mxCell>
        <mxCell id="QricHCHU_unaOszH9Re6-75" style="edgeStyle=orthogonalEdgeStyle;rounded=0;orthogonalLoop=1;jettySize=auto;html=1;exitX=0;exitY=1;exitDx=0;exitDy=0;entryX=1;entryY=0;entryDx=0;entryDy=157.5;entryPerimeter=0;strokeWidth=5;fillColor=#60a917;strokeColor=#2D7600;" parent="1" source="QricHCHU_unaOszH9Re6-63" target="QricHCHU_unaOszH9Re6-34" edge="1">
          <mxGeometry relative="1" as="geometry" />
        </mxCell>
        <mxCell id="QricHCHU_unaOszH9Re6-78" value="&lt;font style=&quot;font-size: 20px;&quot;&gt;ZAPIS TRANSAKCIJE&amp;nbsp;&lt;/font&gt;" style="text;html=1;align=center;verticalAlign=middle;resizable=0;points=[];autosize=1;strokeColor=none;fillColor=none;" parent="1" vertex="1">
          <mxGeometry x="-900" y="1083" width="230" height="40" as="geometry" />
        </mxCell>
        <mxCell id="QricHCHU_unaOszH9Re6-80" style="edgeStyle=orthogonalEdgeStyle;rounded=0;orthogonalLoop=1;jettySize=auto;html=1;exitX=0.5;exitY=1;exitDx=0;exitDy=0;exitPerimeter=0;entryX=0.408;entryY=0.056;entryDx=0;entryDy=0;entryPerimeter=0;fillColor=#60a917;strokeColor=#2D7600;strokeWidth=5;" parent="1" source="QricHCHU_unaOszH9Re6-34" target="QricHCHU_unaOszH9Re6-70" edge="1">
          <mxGeometry relative="1" as="geometry" />
        </mxCell>
        <mxCell id="QricHCHU_unaOszH9Re6-81" value="&lt;font style=&quot;font-size: 20px;&quot;&gt;PODACI O TRANSAKCIJAMA&lt;/font&gt;" style="text;html=1;align=center;verticalAlign=middle;resizable=0;points=[];autosize=1;strokeColor=none;fillColor=none;" parent="1" vertex="1">
          <mxGeometry x="-1110" y="1430" width="290" height="40" as="geometry" />
        </mxCell>
        <mxCell id="QricHCHU_unaOszH9Re6-82" value="&lt;span style=&quot;font-size: 20px;&quot;&gt;ZAPIS PLACENOG RACUNA&lt;/span&gt;" style="text;html=1;align=center;verticalAlign=middle;resizable=0;points=[];autosize=1;strokeColor=none;fillColor=none;" parent="1" vertex="1">
          <mxGeometry x="-500" y="1210" width="290" height="40" as="geometry" />
        </mxCell>
        <mxCell id="QricHCHU_unaOszH9Re6-83" value="&lt;span style=&quot;font-size: 20px;&quot;&gt;SLANJE ZAHTEVA ZA PLACANJE RACUNA NA ODREDJENI DATUM&amp;nbsp;&lt;/span&gt;" style="text;html=1;align=center;verticalAlign=middle;resizable=0;points=[];autosize=1;strokeColor=none;fillColor=none;" parent="1" vertex="1">
          <mxGeometry x="70" y="1160" width="660" height="40" as="geometry" />
        </mxCell>
        <mxCell id="QricHCHU_unaOszH9Re6-85" style="edgeStyle=orthogonalEdgeStyle;rounded=0;orthogonalLoop=1;jettySize=auto;html=1;exitX=0.855;exitY=1;exitDx=0;exitDy=-4.35;exitPerimeter=0;entryX=0.679;entryY=1;entryDx=0;entryDy=0;entryPerimeter=0;strokeWidth=5;fillColor=#60a917;strokeColor=#2D7600;" parent="1" source="QricHCHU_unaOszH9Re6-35" target="QricHCHU_unaOszH9Re6-66" edge="1">
          <mxGeometry relative="1" as="geometry" />
        </mxCell>
        <mxCell id="QricHCHU_unaOszH9Re6-86" value="&lt;span style=&quot;font-size: 20px;&quot;&gt;PODACI O KARTICAMA&lt;/span&gt;&lt;div&gt;&lt;span style=&quot;font-size: 20px;&quot;&gt;&lt;br&gt;&lt;/span&gt;&lt;/div&gt;" style="text;html=1;align=center;verticalAlign=middle;resizable=0;points=[];autosize=1;strokeColor=none;fillColor=none;" parent="1" vertex="1">
          <mxGeometry x="-520" y="1910" width="240" height="60" as="geometry" />
        </mxCell>
        <mxCell id="QricHCHU_unaOszH9Re6-88" style="edgeStyle=orthogonalEdgeStyle;rounded=0;orthogonalLoop=1;jettySize=auto;html=1;exitX=0;exitY=0.5;exitDx=0;exitDy=0;entryX=0.281;entryY=0.986;entryDx=0;entryDy=0;entryPerimeter=0;fillColor=#60a917;strokeColor=#2D7600;strokeWidth=5;" parent="1" source="QricHCHU_unaOszH9Re6-66" target="QricHCHU_unaOszH9Re6-35" edge="1">
          <mxGeometry relative="1" as="geometry" />
        </mxCell>
        <mxCell id="QricHCHU_unaOszH9Re6-89" value="&lt;div&gt;&lt;span style=&quot;font-size: 20px;&quot;&gt;UPIS NOVE KARTICE&lt;/span&gt;&lt;/div&gt;" style="text;html=1;align=center;verticalAlign=middle;resizable=0;points=[];autosize=1;strokeColor=none;fillColor=none;" parent="1" vertex="1">
          <mxGeometry x="-1040" y="1830" width="220" height="40" as="geometry" />
        </mxCell>
        <mxCell id="QricHCHU_unaOszH9Re6-91" style="edgeStyle=orthogonalEdgeStyle;rounded=0;orthogonalLoop=1;jettySize=auto;html=1;exitX=1;exitY=0.5;exitDx=0;exitDy=0;entryX=1;entryY=1;entryDx=0;entryDy=-15;entryPerimeter=0;fillColor=#60a917;strokeColor=#2D7600;strokeWidth=5;" parent="1" source="QricHCHU_unaOszH9Re6-63" target="QricHCHU_unaOszH9Re6-37" edge="1">
          <mxGeometry relative="1" as="geometry" />
        </mxCell>
        <mxCell id="QricHCHU_unaOszH9Re6-94" value="&lt;div&gt;&lt;span style=&quot;font-size: 20px;&quot;&gt;ZAPIS O AUTOMATSKOM PLACANJU&amp;nbsp;&lt;/span&gt;&lt;/div&gt;" style="text;html=1;align=center;verticalAlign=middle;resizable=0;points=[];autosize=1;strokeColor=none;fillColor=none;" parent="1" vertex="1">
          <mxGeometry x="-450" y="2660" width="380" height="40" as="geometry" />
        </mxCell>
        <mxCell id="QricHCHU_unaOszH9Re6-95" style="edgeStyle=orthogonalEdgeStyle;rounded=0;orthogonalLoop=1;jettySize=auto;html=1;exitX=1;exitY=0;exitDx=0;exitDy=15;exitPerimeter=0;entryX=0.674;entryY=0.931;entryDx=0;entryDy=0;entryPerimeter=0;fillColor=#a20025;strokeColor=#6F0000;strokeWidth=5;" parent="1" source="QricHCHU_unaOszH9Re6-37" target="QricHCHU_unaOszH9Re6-63" edge="1">
          <mxGeometry relative="1" as="geometry">
            <mxPoint x="370" y="1490" as="targetPoint" />
          </mxGeometry>
        </mxCell>
        <mxCell id="QricHCHU_unaOszH9Re6-96" value="&lt;div&gt;&lt;span style=&quot;font-size: 20px;&quot;&gt;DOBAVLJANJE PODESAVANJA ZA AUTOMATSKO PLACANJE&lt;/span&gt;&lt;/div&gt;" style="text;html=1;align=center;verticalAlign=middle;resizable=0;points=[];autosize=1;strokeColor=none;fillColor=none;" parent="1" vertex="1">
          <mxGeometry x="-480" y="2470" width="600" height="40" as="geometry" />
        </mxCell>
        <mxCell id="EFb9O_KWn0DuL2CM1pZe-2" style="edgeStyle=orthogonalEdgeStyle;rounded=0;orthogonalLoop=1;jettySize=auto;html=1;exitX=0.75;exitY=0;exitDx=0;exitDy=0;entryX=0.25;entryY=1;entryDx=0;entryDy=0;fillColor=#a20025;strokeColor=#6F0000;strokeWidth=5;" edge="1" parent="1" source="EFb9O_KWn0DuL2CM1pZe-1" target="QricHCHU_unaOszH9Re6-4">
          <mxGeometry relative="1" as="geometry" />
        </mxCell>
        <mxCell id="EFb9O_KWn0DuL2CM1pZe-1" value="&lt;font style=&quot;font-size: 20px;&quot;&gt;POTVRDA O PLACANJU&amp;nbsp;&lt;/font&gt;" style="rounded=1;whiteSpace=wrap;html=1;" vertex="1" parent="1">
          <mxGeometry x="-960" y="400" width="155" height="80" as="geometry" />
        </mxCell>
        <mxCell id="EFb9O_KWn0DuL2CM1pZe-4" style="edgeStyle=orthogonalEdgeStyle;rounded=0;orthogonalLoop=1;jettySize=auto;html=1;exitX=0.25;exitY=0;exitDx=0;exitDy=0;entryX=0.75;entryY=1;entryDx=0;entryDy=0;fillColor=#a20025;strokeColor=#6F0000;strokeWidth=5;" edge="1" parent="1" source="EFb9O_KWn0DuL2CM1pZe-3" target="QricHCHU_unaOszH9Re6-4">
          <mxGeometry relative="1" as="geometry" />
        </mxCell>
        <mxCell id="EFb9O_KWn0DuL2CM1pZe-3" value="&lt;font style=&quot;font-size: 20px;&quot;&gt;GRESKA U PLACANJU&amp;nbsp;&lt;/font&gt;" style="rounded=1;whiteSpace=wrap;html=1;" vertex="1" parent="1">
          <mxGeometry x="-550" y="430" width="150" height="80" as="geometry" />
        </mxCell>
        <mxCell id="EFb9O_KWn0DuL2CM1pZe-6" style="edgeStyle=orthogonalEdgeStyle;rounded=0;orthogonalLoop=1;jettySize=auto;html=1;exitX=0;exitY=0.5;exitDx=0;exitDy=0;fillColor=#1ba1e2;strokeColor=#006EAF;strokeWidth=5;" edge="1" parent="1" source="QricHCHU_unaOszH9Re6-1" target="QricHCHU_unaOszH9Re6-10">
          <mxGeometry relative="1" as="geometry" />
        </mxCell>
        <mxCell id="EFb9O_KWn0DuL2CM1pZe-7" style="edgeStyle=orthogonalEdgeStyle;rounded=0;orthogonalLoop=1;jettySize=auto;html=1;exitX=1;exitY=1;exitDx=0;exitDy=0;entryX=0;entryY=0.5;entryDx=0;entryDy=0;fillColor=#1ba1e2;strokeColor=#006EAF;strokeWidth=5;" edge="1" parent="1" source="QricHCHU_unaOszH9Re6-1" target="QricHCHU_unaOszH9Re6-6">
          <mxGeometry relative="1" as="geometry" />
        </mxCell>
        <mxCell id="EFb9O_KWn0DuL2CM1pZe-10" style="edgeStyle=orthogonalEdgeStyle;rounded=0;orthogonalLoop=1;jettySize=auto;html=1;exitX=0;exitY=0.5;exitDx=0;exitDy=0;fillColor=#a20025;strokeColor=#6F0000;strokeWidth=5;" edge="1" parent="1" source="EFb9O_KWn0DuL2CM1pZe-9" target="QricHCHU_unaOszH9Re6-70">
          <mxGeometry relative="1" as="geometry" />
        </mxCell>
        <mxCell id="EFb9O_KWn0DuL2CM1pZe-17" style="edgeStyle=orthogonalEdgeStyle;rounded=0;orthogonalLoop=1;jettySize=auto;html=1;exitX=0.75;exitY=1;exitDx=0;exitDy=0;entryX=0;entryY=0;entryDx=0;entryDy=0;fillColor=#a20025;strokeColor=#6F0000;strokeWidth=5;" edge="1" parent="1" source="EFb9O_KWn0DuL2CM1pZe-9" target="QricHCHU_unaOszH9Re6-66">
          <mxGeometry relative="1" as="geometry" />
        </mxCell>
        <mxCell id="EFb9O_KWn0DuL2CM1pZe-9" value="&lt;font style=&quot;font-size: 20px;&quot;&gt;KORISNIK&amp;nbsp;&lt;/font&gt;" style="rounded=1;whiteSpace=wrap;html=1;" vertex="1" parent="1">
          <mxGeometry x="-57.5" y="1585" width="215" height="120" as="geometry" />
        </mxCell>
        <mxCell id="EFb9O_KWn0DuL2CM1pZe-11" value="&lt;font style=&quot;font-size: 20px;&quot;&gt;ZAHTEV ZA PREGLED ISTORIJE&amp;nbsp;&lt;/font&gt;" style="text;html=1;align=center;verticalAlign=middle;resizable=0;points=[];autosize=1;strokeColor=none;fillColor=none;" vertex="1" parent="1">
          <mxGeometry x="-680" y="1650" width="330" height="40" as="geometry" />
        </mxCell>
        <mxCell id="EFb9O_KWn0DuL2CM1pZe-15" style="edgeStyle=orthogonalEdgeStyle;rounded=0;orthogonalLoop=1;jettySize=auto;html=1;exitX=0.5;exitY=0;exitDx=0;exitDy=0;exitPerimeter=0;entryX=1;entryY=1;entryDx=0;entryDy=0;fillColor=#a20025;strokeColor=#6F0000;strokeWidth=5;" edge="1" parent="1" source="QricHCHU_unaOszH9Re6-37" target="EFb9O_KWn0DuL2CM1pZe-9">
          <mxGeometry relative="1" as="geometry" />
        </mxCell>
        <mxCell id="EFb9O_KWn0DuL2CM1pZe-16" value="&lt;font style=&quot;font-size: 20px;&quot;&gt;OBAVESTENJE KORISNIKU DA SE IZVRSILO AUTOMNASTKO PLACANJE&amp;nbsp;&lt;/font&gt;" style="text;html=1;align=center;verticalAlign=middle;resizable=0;points=[];autosize=1;strokeColor=none;fillColor=none;" vertex="1" parent="1">
          <mxGeometry x="-570" y="2060" width="720" height="40" as="geometry" />
        </mxCell>
        <mxCell id="EFb9O_KWn0DuL2CM1pZe-18" value="&lt;font style=&quot;font-size: 20px;&quot;&gt;ZAHTEV ZA PREGLED KARTICA&amp;nbsp;&lt;/font&gt;" style="text;html=1;align=center;verticalAlign=middle;resizable=0;points=[];autosize=1;strokeColor=none;fillColor=none;" vertex="1" parent="1">
          <mxGeometry x="-375" y="1705" width="330" height="40" as="geometry" />
        </mxCell>
        <mxCell id="EFb9O_KWn0DuL2CM1pZe-19" value="&lt;font style=&quot;font-size: 20px;&quot;&gt;STANJE RACUNA&lt;/font&gt;" style="rounded=1;whiteSpace=wrap;html=1;" vertex="1" parent="1">
          <mxGeometry x="390" y="560" width="120" height="60" as="geometry" />
        </mxCell>
        <mxCell id="EFb9O_KWn0DuL2CM1pZe-20" style="edgeStyle=orthogonalEdgeStyle;rounded=0;orthogonalLoop=1;jettySize=auto;html=1;exitX=0.25;exitY=0;exitDx=0;exitDy=0;entryX=1.032;entryY=0;entryDx=0;entryDy=0;entryPerimeter=0;fillColor=#a20025;strokeColor=#6F0000;strokeWidth=5;" edge="1" parent="1" source="EFb9O_KWn0DuL2CM1pZe-19" target="QricHCHU_unaOszH9Re6-13">
          <mxGeometry relative="1" as="geometry" />
        </mxCell>
        <mxCell id="EFb9O_KWn0DuL2CM1pZe-22" style="edgeStyle=orthogonalEdgeStyle;rounded=0;orthogonalLoop=1;jettySize=auto;html=1;exitX=0.75;exitY=0;exitDx=0;exitDy=0;entryX=0.918;entryY=0.034;entryDx=0;entryDy=0;entryPerimeter=0;strokeWidth=5;fillColor=#a20025;strokeColor=#6F0000;" edge="1" parent="1" source="QricHCHU_unaOszH9Re6-6" target="EFb9O_KWn0DuL2CM1pZe-19">
          <mxGeometry relative="1" as="geometry" />
        </mxCell>
        <mxCell id="EFb9O_KWn0DuL2CM1pZe-23" value="" style="endArrow=none;html=1;rounded=0;fillColor=#a20025;strokeColor=light-dark(#6F0000,#FF0101);strokeWidth=12;" edge="1" parent="1">
          <mxGeometry width="50" height="50" relative="1" as="geometry">
            <mxPoint x="-1690" y="2810" as="sourcePoint" />
            <mxPoint x="1690" y="2810" as="targetPoint" />
          </mxGeometry>
        </mxCell>
        <mxCell id="EFb9O_KWn0DuL2CM1pZe-24" value="" style="endArrow=none;html=1;rounded=0;fillColor=#a20025;strokeColor=light-dark(#6F0000,#FF0101);strokeWidth=12;" edge="1" parent="1">
          <mxGeometry width="50" height="50" relative="1" as="geometry">
            <mxPoint x="-1690" y="960" as="sourcePoint" />
            <mxPoint x="1690" y="960" as="targetPoint" />
          </mxGeometry>
        </mxCell>
        <mxCell id="EFb9O_KWn0DuL2CM1pZe-25" value="&lt;div&gt;&lt;font style=&quot;font-size: 70px;&quot;&gt;DEKOMPOZICIJA PROCESA 1&lt;/font&gt;&lt;/div&gt;" style="text;html=1;align=center;verticalAlign=middle;resizable=0;points=[];autosize=1;strokeColor=none;fillColor=none;" vertex="1" parent="1">
          <mxGeometry x="-1670" y="2850" width="1010" height="100" as="geometry" />
        </mxCell>
        <mxCell id="EFb9O_KWn0DuL2CM1pZe-26" value="" style="group" vertex="1" connectable="0" parent="1">
          <mxGeometry x="-240" y="2810" width="440" height="230" as="geometry" />
        </mxCell>
        <mxCell id="EFb9O_KWn0DuL2CM1pZe-191" style="edgeStyle=orthogonalEdgeStyle;rounded=0;orthogonalLoop=1;jettySize=auto;html=1;exitX=0;exitY=1;exitDx=0;exitDy=0;fillColor=#1ba1e2;strokeColor=#006EAF;strokeWidth=5;" edge="1" parent="EFb9O_KWn0DuL2CM1pZe-26" source="EFb9O_KWn0DuL2CM1pZe-27">
          <mxGeometry relative="1" as="geometry">
            <mxPoint x="-20" y="250" as="targetPoint" />
          </mxGeometry>
        </mxCell>
        <mxCell id="EFb9O_KWn0DuL2CM1pZe-194" style="edgeStyle=orthogonalEdgeStyle;rounded=0;orthogonalLoop=1;jettySize=auto;html=1;exitX=1;exitY=0;exitDx=0;exitDy=0;fillColor=#1ba1e2;strokeColor=#006EAF;strokeWidth=5;" edge="1" parent="EFb9O_KWn0DuL2CM1pZe-26" source="EFb9O_KWn0DuL2CM1pZe-27">
          <mxGeometry relative="1" as="geometry">
            <mxPoint x="800" y="120" as="targetPoint" />
          </mxGeometry>
        </mxCell>
        <mxCell id="EFb9O_KWn0DuL2CM1pZe-27" value="&lt;font style=&quot;font-size: 30px;&quot;&gt;SLANJE NOVCA&amp;nbsp;&lt;/font&gt;" style="ellipse;whiteSpace=wrap;html=1;" vertex="1" parent="EFb9O_KWn0DuL2CM1pZe-26">
          <mxGeometry width="440" height="230" as="geometry" />
        </mxCell>
        <mxCell id="EFb9O_KWn0DuL2CM1pZe-28" value="&lt;font style=&quot;font-size: 50px;&quot;&gt;1&lt;/font&gt;" style="text;html=1;align=center;verticalAlign=middle;resizable=0;points=[];autosize=1;strokeColor=none;fillColor=none;container=1;" vertex="1" parent="EFb9O_KWn0DuL2CM1pZe-26">
          <mxGeometry x="190.0004761904761" y="139.998260869565" width="50" height="70" as="geometry" />
        </mxCell>
        <mxCell id="EFb9O_KWn0DuL2CM1pZe-63" style="edgeStyle=orthogonalEdgeStyle;rounded=0;orthogonalLoop=1;jettySize=auto;html=1;exitX=1;exitY=0;exitDx=0;exitDy=0;entryX=0;entryY=0.5;entryDx=0;entryDy=0;fillColor=#a20025;strokeColor=#6F0000;strokeWidth=5;" edge="1" parent="1" source="EFb9O_KWn0DuL2CM1pZe-29" target="EFb9O_KWn0DuL2CM1pZe-32">
          <mxGeometry relative="1" as="geometry" />
        </mxCell>
        <mxCell id="EFb9O_KWn0DuL2CM1pZe-29" value="&lt;font style=&quot;font-size: 20px;&quot;&gt;UNOS PODATAKA O PRIMAOCU&amp;nbsp;&lt;/font&gt;" style="ellipse;whiteSpace=wrap;html=1;" vertex="1" parent="1">
          <mxGeometry x="-800" y="3020" width="270" height="190" as="geometry" />
        </mxCell>
        <mxCell id="EFb9O_KWn0DuL2CM1pZe-36" style="edgeStyle=orthogonalEdgeStyle;rounded=0;orthogonalLoop=1;jettySize=auto;html=1;exitX=1;exitY=1;exitDx=0;exitDy=-15;exitPerimeter=0;entryX=0.86;entryY=0.031;entryDx=0;entryDy=0;entryPerimeter=0;fillColor=#60a917;strokeColor=#2D7600;strokeWidth=5;" edge="1" parent="1" source="QricHCHU_unaOszH9Re6-34" target="EFb9O_KWn0DuL2CM1pZe-9">
          <mxGeometry relative="1" as="geometry" />
        </mxCell>
        <mxCell id="EFb9O_KWn0DuL2CM1pZe-37" value="&lt;font style=&quot;font-size: 20px;&quot;&gt;POTVRDA O USPESNOJ TRANSAKCIJI&amp;nbsp;&lt;/font&gt;" style="text;html=1;align=center;verticalAlign=middle;resizable=0;points=[];autosize=1;strokeColor=none;fillColor=none;" vertex="1" parent="1">
          <mxGeometry x="-385" y="1330" width="390" height="40" as="geometry" />
        </mxCell>
        <mxCell id="EFb9O_KWn0DuL2CM1pZe-38" style="edgeStyle=orthogonalEdgeStyle;rounded=0;orthogonalLoop=1;jettySize=auto;html=1;exitX=0.855;exitY=1;exitDx=0;exitDy=-4.35;exitPerimeter=0;entryX=0;entryY=0.25;entryDx=0;entryDy=0;strokeWidth=5;fillColor=#60a917;strokeColor=#2D7600;" edge="1" parent="1" source="QricHCHU_unaOszH9Re6-34" target="EFb9O_KWn0DuL2CM1pZe-9">
          <mxGeometry relative="1" as="geometry" />
        </mxCell>
        <mxCell id="EFb9O_KWn0DuL2CM1pZe-39" value="&lt;font style=&quot;font-size: 20px;&quot;&gt;POTVRDA O PLACENOM RACUNU&amp;nbsp;&lt;/font&gt;" style="text;html=1;align=center;verticalAlign=middle;resizable=0;points=[];autosize=1;strokeColor=none;fillColor=none;" vertex="1" parent="1">
          <mxGeometry x="-450" y="1565" width="350" height="40" as="geometry" />
        </mxCell>
        <mxCell id="EFb9O_KWn0DuL2CM1pZe-40" style="edgeStyle=orthogonalEdgeStyle;rounded=0;orthogonalLoop=1;jettySize=auto;html=1;exitX=0;exitY=0;exitDx=0;exitDy=0;entryX=1;entryY=0.5;entryDx=0;entryDy=0;fillColor=#a20025;strokeColor=#6F0000;strokeWidth=5;" edge="1" parent="1" source="QricHCHU_unaOszH9Re6-63" target="QricHCHU_unaOszH9Re6-60">
          <mxGeometry relative="1" as="geometry" />
        </mxCell>
        <mxCell id="EFb9O_KWn0DuL2CM1pZe-43" style="edgeStyle=orthogonalEdgeStyle;rounded=0;orthogonalLoop=1;jettySize=auto;html=1;exitX=1;exitY=0;exitDx=0;exitDy=0;entryX=0.5;entryY=0;entryDx=0;entryDy=0;fillColor=#a20025;strokeColor=#6F0000;strokeWidth=5;" edge="1" parent="1" source="EFb9O_KWn0DuL2CM1pZe-41" target="EFb9O_KWn0DuL2CM1pZe-29">
          <mxGeometry relative="1" as="geometry" />
        </mxCell>
        <mxCell id="EFb9O_KWn0DuL2CM1pZe-41" value="&lt;font style=&quot;font-size: 20px;&quot;&gt;KORISNIK&amp;nbsp;&lt;/font&gt;" style="rounded=1;whiteSpace=wrap;html=1;arcSize=0;" vertex="1" parent="1">
          <mxGeometry x="-1660" y="3020" width="215" height="120" as="geometry" />
        </mxCell>
        <mxCell id="EFb9O_KWn0DuL2CM1pZe-44" value="&lt;font style=&quot;font-size: 20px;&quot;&gt;UNOS PODATAKA O PRIMAOCU&amp;nbsp;&lt;/font&gt;" style="text;html=1;align=center;verticalAlign=middle;resizable=0;points=[];autosize=1;strokeColor=none;fillColor=none;" vertex="1" parent="1">
          <mxGeometry x="-1350" y="2950" width="330" height="40" as="geometry" />
        </mxCell>
        <mxCell id="EFb9O_KWn0DuL2CM1pZe-46" value="&lt;font style=&quot;font-size: 20px;&quot;&gt;UNOS IZNOSA&amp;nbsp;&lt;/font&gt;" style="text;html=1;align=center;verticalAlign=middle;resizable=0;points=[];autosize=1;strokeColor=none;fillColor=none;" vertex="1" parent="1">
          <mxGeometry x="-1410" y="3190" width="170" height="40" as="geometry" />
        </mxCell>
        <mxCell id="EFb9O_KWn0DuL2CM1pZe-47" value="&lt;font style=&quot;font-size: 20px;&quot;&gt;BANKA&lt;/font&gt;" style="rounded=1;whiteSpace=wrap;html=1;arcSize=0;" vertex="1" parent="1">
          <mxGeometry x="-1670" y="3610" width="215" height="120" as="geometry" />
        </mxCell>
        <mxCell id="EFb9O_KWn0DuL2CM1pZe-50" value="&lt;font style=&quot;font-size: 30px;&quot;&gt;1.1&lt;/font&gt;" style="text;html=1;align=center;verticalAlign=middle;resizable=0;points=[];autosize=1;strokeColor=none;fillColor=none;container=1;" vertex="1" parent="1">
          <mxGeometry x="-709.9995238095239" y="3149.998260869565" width="70" height="50" as="geometry" />
        </mxCell>
        <mxCell id="EFb9O_KWn0DuL2CM1pZe-56" value="" style="group" vertex="1" connectable="0" parent="1">
          <mxGeometry x="-395" y="3070" width="300" height="150" as="geometry" />
        </mxCell>
        <mxCell id="EFb9O_KWn0DuL2CM1pZe-30" value="&lt;span style=&quot;font-size: 20px;&quot;&gt;UNOS IZNOSA I VALUTE&amp;nbsp;&lt;/span&gt;" style="ellipse;whiteSpace=wrap;html=1;" vertex="1" parent="EFb9O_KWn0DuL2CM1pZe-56">
          <mxGeometry width="300" height="150" as="geometry" />
        </mxCell>
        <mxCell id="EFb9O_KWn0DuL2CM1pZe-52" value="&lt;font style=&quot;font-size: 30px;&quot;&gt;1.2&lt;/font&gt;" style="text;html=1;align=center;verticalAlign=middle;resizable=0;points=[];autosize=1;strokeColor=none;fillColor=none;container=1;" vertex="1" parent="EFb9O_KWn0DuL2CM1pZe-56">
          <mxGeometry x="100.00047619047609" y="89.998260869565" width="70" height="50" as="geometry" />
        </mxCell>
        <mxCell id="EFb9O_KWn0DuL2CM1pZe-57" value="" style="group" vertex="1" connectable="0" parent="1">
          <mxGeometry x="40" y="3150" width="250" height="170" as="geometry" />
        </mxCell>
        <mxCell id="EFb9O_KWn0DuL2CM1pZe-31" value="&lt;font style=&quot;font-size: 20px;&quot;&gt;IZBOR KARTICE ZA PLACANJE&amp;nbsp;&lt;/font&gt;" style="ellipse;whiteSpace=wrap;html=1;" vertex="1" parent="EFb9O_KWn0DuL2CM1pZe-57">
          <mxGeometry width="250" height="170" as="geometry" />
        </mxCell>
        <mxCell id="EFb9O_KWn0DuL2CM1pZe-53" value="&lt;font style=&quot;font-size: 30px;&quot;&gt;1.3&lt;/font&gt;" style="text;html=1;align=center;verticalAlign=middle;resizable=0;points=[];autosize=1;strokeColor=none;fillColor=none;container=1;" vertex="1" parent="EFb9O_KWn0DuL2CM1pZe-57">
          <mxGeometry x="80.00047619047609" y="109.998260869565" width="70" height="50" as="geometry" />
        </mxCell>
        <mxCell id="EFb9O_KWn0DuL2CM1pZe-58" value="" style="group" vertex="1" connectable="0" parent="1">
          <mxGeometry x="320" y="3010" width="240" height="160" as="geometry" />
        </mxCell>
        <mxCell id="EFb9O_KWn0DuL2CM1pZe-32" value="&lt;font style=&quot;font-size: 20px;&quot;&gt;AUTORIZACIJA TRANSAKCIJE&amp;nbsp;&lt;/font&gt;" style="ellipse;whiteSpace=wrap;html=1;" vertex="1" parent="EFb9O_KWn0DuL2CM1pZe-58">
          <mxGeometry width="240" height="160" as="geometry" />
        </mxCell>
        <mxCell id="EFb9O_KWn0DuL2CM1pZe-54" value="&lt;font style=&quot;font-size: 30px;&quot;&gt;1.4&lt;/font&gt;" style="text;html=1;align=center;verticalAlign=middle;resizable=0;points=[];autosize=1;strokeColor=none;fillColor=none;container=1;" vertex="1" parent="EFb9O_KWn0DuL2CM1pZe-58">
          <mxGeometry x="85.00047619047609" y="99.998260869565" width="70" height="50" as="geometry" />
        </mxCell>
        <mxCell id="EFb9O_KWn0DuL2CM1pZe-59" value="" style="group" vertex="1" connectable="0" parent="1">
          <mxGeometry x="560" y="2850" width="270" height="180" as="geometry" />
        </mxCell>
        <mxCell id="EFb9O_KWn0DuL2CM1pZe-33" value="&lt;font style=&quot;font-size: 20px;&quot;&gt;POTVRDA I ZAPIS TRANSAKCIJE&amp;nbsp;&lt;/font&gt;" style="ellipse;whiteSpace=wrap;html=1;" vertex="1" parent="EFb9O_KWn0DuL2CM1pZe-59">
          <mxGeometry width="270" height="180" as="geometry" />
        </mxCell>
        <mxCell id="EFb9O_KWn0DuL2CM1pZe-55" value="&lt;font style=&quot;font-size: 30px;&quot;&gt;1.5&lt;/font&gt;" style="text;html=1;align=center;verticalAlign=middle;resizable=0;points=[];autosize=1;strokeColor=none;fillColor=none;container=1;" vertex="1" parent="EFb9O_KWn0DuL2CM1pZe-59">
          <mxGeometry x="100.00047619047609" y="109.998260869565" width="70" height="50" as="geometry" />
        </mxCell>
        <mxCell id="EFb9O_KWn0DuL2CM1pZe-60" style="edgeStyle=orthogonalEdgeStyle;rounded=0;orthogonalLoop=1;jettySize=auto;html=1;exitX=1;exitY=1;exitDx=0;exitDy=0;entryX=0.683;entryY=1;entryDx=0;entryDy=0;entryPerimeter=0;strokeWidth=5;fillColor=#a20025;strokeColor=#6F0000;" edge="1" parent="1" source="EFb9O_KWn0DuL2CM1pZe-41" target="EFb9O_KWn0DuL2CM1pZe-30">
          <mxGeometry relative="1" as="geometry" />
        </mxCell>
        <mxCell id="EFb9O_KWn0DuL2CM1pZe-61" style="edgeStyle=orthogonalEdgeStyle;rounded=0;orthogonalLoop=1;jettySize=auto;html=1;exitX=0;exitY=1;exitDx=0;exitDy=0;entryX=0.398;entryY=0.982;entryDx=0;entryDy=0;entryPerimeter=0;fillColor=#a20025;strokeColor=#6F0000;strokeWidth=5;" edge="1" parent="1" source="EFb9O_KWn0DuL2CM1pZe-41" target="EFb9O_KWn0DuL2CM1pZe-53">
          <mxGeometry relative="1" as="geometry" />
        </mxCell>
        <mxCell id="EFb9O_KWn0DuL2CM1pZe-62" value="&lt;span style=&quot;font-size: 20px;&quot;&gt;IZBOR KARTICE ZA PLACANJE&lt;/span&gt;" style="text;html=1;align=center;verticalAlign=middle;resizable=0;points=[];autosize=1;strokeColor=none;fillColor=none;" vertex="1" parent="1">
          <mxGeometry x="-1630" y="3280" width="320" height="40" as="geometry" />
        </mxCell>
        <mxCell id="EFb9O_KWn0DuL2CM1pZe-64" style="edgeStyle=orthogonalEdgeStyle;rounded=0;orthogonalLoop=1;jettySize=auto;html=1;exitX=1;exitY=0.5;exitDx=0;exitDy=0;entryX=0.074;entryY=0.744;entryDx=0;entryDy=0;entryPerimeter=0;strokeWidth=5;fillColor=#a20025;strokeColor=#6F0000;" edge="1" parent="1" source="EFb9O_KWn0DuL2CM1pZe-30" target="EFb9O_KWn0DuL2CM1pZe-32">
          <mxGeometry relative="1" as="geometry" />
        </mxCell>
        <mxCell id="EFb9O_KWn0DuL2CM1pZe-65" style="edgeStyle=orthogonalEdgeStyle;rounded=0;orthogonalLoop=1;jettySize=auto;html=1;exitX=0.5;exitY=1;exitDx=0;exitDy=0;entryX=1;entryY=0.5;entryDx=0;entryDy=0;fillColor=#0050ef;strokeColor=#001DBC;strokeWidth=5;" edge="1" parent="1" source="EFb9O_KWn0DuL2CM1pZe-32" target="EFb9O_KWn0DuL2CM1pZe-47">
          <mxGeometry relative="1" as="geometry">
            <mxPoint x="390" y="3600" as="targetPoint" />
          </mxGeometry>
        </mxCell>
        <mxCell id="EFb9O_KWn0DuL2CM1pZe-66" value="&lt;font style=&quot;font-size: 20px;&quot;&gt;ZAHTEV ZA AUTORIZACIJU&amp;nbsp;&lt;/font&gt;" style="text;html=1;align=center;verticalAlign=middle;resizable=0;points=[];autosize=1;strokeColor=none;fillColor=none;" vertex="1" parent="1">
          <mxGeometry x="-1420" y="3620" width="290" height="40" as="geometry" />
        </mxCell>
        <mxCell id="EFb9O_KWn0DuL2CM1pZe-67" style="edgeStyle=orthogonalEdgeStyle;rounded=0;orthogonalLoop=1;jettySize=auto;html=1;exitX=0.75;exitY=0;exitDx=0;exitDy=0;entryX=0.25;entryY=0.938;entryDx=0;entryDy=0;entryPerimeter=0;fillColor=#a20025;strokeColor=#6F0000;strokeWidth=5;" edge="1" parent="1" source="EFb9O_KWn0DuL2CM1pZe-47" target="EFb9O_KWn0DuL2CM1pZe-32">
          <mxGeometry relative="1" as="geometry" />
        </mxCell>
        <mxCell id="EFb9O_KWn0DuL2CM1pZe-68" value="&lt;span style=&quot;font-size: 20px;&quot;&gt;REZULTAT AUTORIZACIJE&lt;/span&gt;" style="text;html=1;align=center;verticalAlign=middle;resizable=0;points=[];autosize=1;strokeColor=none;fillColor=none;" vertex="1" parent="1">
          <mxGeometry x="-1400" y="3350" width="270" height="40" as="geometry" />
        </mxCell>
        <mxCell id="EFb9O_KWn0DuL2CM1pZe-69" style="edgeStyle=orthogonalEdgeStyle;rounded=0;orthogonalLoop=1;jettySize=auto;html=1;exitX=1;exitY=0.5;exitDx=0;exitDy=0;entryX=0.694;entryY=0.958;entryDx=0;entryDy=0;entryPerimeter=0;fillColor=#a20025;strokeColor=#6F0000;strokeWidth=5;" edge="1" parent="1" source="EFb9O_KWn0DuL2CM1pZe-32" target="EFb9O_KWn0DuL2CM1pZe-33">
          <mxGeometry relative="1" as="geometry" />
        </mxCell>
        <mxCell id="EFb9O_KWn0DuL2CM1pZe-70" value="" style="group" vertex="1" connectable="0" parent="1">
          <mxGeometry x="-1640" y="3860" width="150" height="240" as="geometry" />
        </mxCell>
        <mxCell id="EFb9O_KWn0DuL2CM1pZe-71" value="&lt;font style=&quot;font-size: 20px;&quot;&gt;TRANSAKCIJE&lt;/font&gt;" style="shape=cylinder3;whiteSpace=wrap;html=1;boundedLbl=1;backgroundOutline=1;size=15;" vertex="1" parent="EFb9O_KWn0DuL2CM1pZe-70">
          <mxGeometry width="150" height="239.99999999999997" as="geometry" />
        </mxCell>
        <mxCell id="EFb9O_KWn0DuL2CM1pZe-72" value="&lt;font style=&quot;font-size: 20px;&quot;&gt;D1&lt;/font&gt;" style="text;html=1;align=center;verticalAlign=middle;resizable=0;points=[];autosize=1;strokeColor=none;fillColor=none;" vertex="1" parent="EFb9O_KWn0DuL2CM1pZe-70">
          <mxGeometry x="55" y="152.72727272727272" width="50" height="40" as="geometry" />
        </mxCell>
        <mxCell id="EFb9O_KWn0DuL2CM1pZe-73" style="edgeStyle=orthogonalEdgeStyle;rounded=0;orthogonalLoop=1;jettySize=auto;html=1;exitX=0.5;exitY=1;exitDx=0;exitDy=0;entryX=1.003;entryY=0.793;entryDx=0;entryDy=0;entryPerimeter=0;fillColor=#60a917;strokeColor=#2D7600;strokeWidth=5;" edge="1" parent="1" source="EFb9O_KWn0DuL2CM1pZe-33" target="EFb9O_KWn0DuL2CM1pZe-71">
          <mxGeometry relative="1" as="geometry" />
        </mxCell>
        <mxCell id="EFb9O_KWn0DuL2CM1pZe-74" value="&lt;span style=&quot;font-size: 20px;&quot;&gt;USPESNA TRANSAKCIJA / GRESKA&amp;nbsp;&lt;/span&gt;" style="text;html=1;align=center;verticalAlign=middle;resizable=0;points=[];autosize=1;strokeColor=none;fillColor=none;" vertex="1" parent="1">
          <mxGeometry x="-1490" y="4000" width="360" height="40" as="geometry" />
        </mxCell>
        <mxCell id="EFb9O_KWn0DuL2CM1pZe-75" value="" style="endArrow=none;html=1;rounded=0;fillColor=#a20025;strokeColor=light-dark(#6F0000,#FF0101);strokeWidth=12;" edge="1" parent="1">
          <mxGeometry width="50" height="50" relative="1" as="geometry">
            <mxPoint x="-1690" y="4150" as="sourcePoint" />
            <mxPoint x="1690" y="4150" as="targetPoint" />
          </mxGeometry>
        </mxCell>
        <mxCell id="EFb9O_KWn0DuL2CM1pZe-76" value="" style="group" vertex="1" connectable="0" parent="1">
          <mxGeometry x="-180" y="4160" width="350" height="210" as="geometry" />
        </mxCell>
        <mxCell id="EFb9O_KWn0DuL2CM1pZe-197" style="edgeStyle=orthogonalEdgeStyle;rounded=0;orthogonalLoop=1;jettySize=auto;html=1;exitX=1;exitY=1;exitDx=0;exitDy=0;" edge="1" parent="EFb9O_KWn0DuL2CM1pZe-76" source="EFb9O_KWn0DuL2CM1pZe-77">
          <mxGeometry relative="1" as="geometry">
            <mxPoint x="310" y="179.71428571428623" as="targetPoint" />
          </mxGeometry>
        </mxCell>
        <mxCell id="EFb9O_KWn0DuL2CM1pZe-77" value="&lt;font style=&quot;font-size: 30px;&quot;&gt;PLCACANJE RACUNA&amp;nbsp;&lt;/font&gt;" style="ellipse;whiteSpace=wrap;html=1;" vertex="1" parent="EFb9O_KWn0DuL2CM1pZe-76">
          <mxGeometry width="350" height="210" as="geometry" />
        </mxCell>
        <mxCell id="EFb9O_KWn0DuL2CM1pZe-78" value="&lt;font style=&quot;font-size: 50px;&quot;&gt;2&lt;/font&gt;" style="text;html=1;align=center;verticalAlign=middle;resizable=0;points=[];autosize=1;strokeColor=none;fillColor=none;" vertex="1" parent="EFb9O_KWn0DuL2CM1pZe-76">
          <mxGeometry x="159.99652173913043" y="125" width="50" height="70" as="geometry" />
        </mxCell>
        <mxCell id="EFb9O_KWn0DuL2CM1pZe-106" style="edgeStyle=orthogonalEdgeStyle;rounded=0;orthogonalLoop=1;jettySize=auto;html=1;exitX=1;exitY=0.5;exitDx=0;exitDy=0;fillColor=#a20025;strokeColor=#6F0000;strokeWidth=5;" edge="1" parent="1" source="EFb9O_KWn0DuL2CM1pZe-84" target="EFb9O_KWn0DuL2CM1pZe-87">
          <mxGeometry relative="1" as="geometry" />
        </mxCell>
        <mxCell id="EFb9O_KWn0DuL2CM1pZe-84" value="&lt;span style=&quot;font-size: 20px;&quot;&gt;ODABRI VRSTE RACUNA&lt;/span&gt;&lt;div&gt;&lt;span style=&quot;font-size: 20px;&quot;&gt;2.1&lt;/span&gt;&lt;/div&gt;" style="ellipse;whiteSpace=wrap;html=1;" vertex="1" parent="1">
          <mxGeometry x="-960" y="4250" width="270" height="190" as="geometry" />
        </mxCell>
        <mxCell id="EFb9O_KWn0DuL2CM1pZe-85" value="&lt;span style=&quot;font-size: 20px;&quot;&gt;UNOS PODATAKA ZA RACUN&amp;nbsp;&lt;/span&gt;&lt;div&gt;&lt;span style=&quot;font-size: 20px;&quot;&gt;2.2&lt;/span&gt;&lt;/div&gt;" style="ellipse;whiteSpace=wrap;html=1;" vertex="1" parent="1">
          <mxGeometry x="-500" y="4410" width="270" height="190" as="geometry" />
        </mxCell>
        <mxCell id="EFb9O_KWn0DuL2CM1pZe-107" style="edgeStyle=orthogonalEdgeStyle;rounded=0;orthogonalLoop=1;jettySize=auto;html=1;exitX=1;exitY=0.5;exitDx=0;exitDy=0;entryX=0;entryY=0.5;entryDx=0;entryDy=0;fillColor=#a20025;strokeColor=#6F0000;strokeWidth=5;" edge="1" parent="1" source="EFb9O_KWn0DuL2CM1pZe-87" target="EFb9O_KWn0DuL2CM1pZe-88">
          <mxGeometry relative="1" as="geometry" />
        </mxCell>
        <mxCell id="EFb9O_KWn0DuL2CM1pZe-87" value="&lt;span style=&quot;font-size: 20px;&quot;&gt;PROVERA PODRSKE ZA AUTOMASKO PLACANJE&amp;nbsp;&lt;/span&gt;&lt;div&gt;&lt;span style=&quot;font-size: 20px;&quot;&gt;2.4&lt;/span&gt;&lt;/div&gt;" style="ellipse;whiteSpace=wrap;html=1;" vertex="1" parent="1">
          <mxGeometry x="150" y="4350" width="270" height="190" as="geometry" />
        </mxCell>
        <mxCell id="EFb9O_KWn0DuL2CM1pZe-97" style="edgeStyle=orthogonalEdgeStyle;rounded=0;orthogonalLoop=1;jettySize=auto;html=1;exitX=0.5;exitY=1;exitDx=0;exitDy=0;entryX=1;entryY=0.75;entryDx=0;entryDy=0;fillColor=#0050ef;strokeColor=#001DBC;strokeWidth=5;" edge="1" parent="1" source="EFb9O_KWn0DuL2CM1pZe-88" target="EFb9O_KWn0DuL2CM1pZe-95">
          <mxGeometry relative="1" as="geometry" />
        </mxCell>
        <mxCell id="EFb9O_KWn0DuL2CM1pZe-88" value="&lt;span style=&quot;font-size: 20px;&quot;&gt;AUTORIZACIJA I IZVRSENJE PLACANJA&amp;nbsp;&lt;/span&gt;&lt;div&gt;&lt;span style=&quot;font-size: 20px;&quot;&gt;2.5&lt;/span&gt;&lt;/div&gt;" style="ellipse;whiteSpace=wrap;html=1;" vertex="1" parent="1">
          <mxGeometry x="650" y="4450" width="270" height="190" as="geometry" />
        </mxCell>
        <mxCell id="EFb9O_KWn0DuL2CM1pZe-89" value="&lt;span style=&quot;font-size: 20px;&quot;&gt;ZAPIS TRANSAKCIJE&amp;nbsp;&lt;/span&gt;&lt;div&gt;&lt;span style=&quot;font-size: 20px;&quot;&gt;2.6&lt;/span&gt;&lt;/div&gt;" style="ellipse;whiteSpace=wrap;html=1;" vertex="1" parent="1">
          <mxGeometry x="720" y="4200" width="270" height="190" as="geometry" />
        </mxCell>
        <mxCell id="EFb9O_KWn0DuL2CM1pZe-92" style="edgeStyle=orthogonalEdgeStyle;rounded=0;orthogonalLoop=1;jettySize=auto;html=1;exitX=1;exitY=0.5;exitDx=0;exitDy=0;entryX=0.5;entryY=1;entryDx=0;entryDy=0;fillColor=#a20025;strokeColor=#6F0000;strokeWidth=5;" edge="1" parent="1" source="EFb9O_KWn0DuL2CM1pZe-91" target="EFb9O_KWn0DuL2CM1pZe-85">
          <mxGeometry relative="1" as="geometry" />
        </mxCell>
        <mxCell id="EFb9O_KWn0DuL2CM1pZe-104" style="edgeStyle=orthogonalEdgeStyle;rounded=0;orthogonalLoop=1;jettySize=auto;html=1;exitX=0.75;exitY=0;exitDx=0;exitDy=0;entryX=0;entryY=0.5;entryDx=0;entryDy=0;fillColor=#a20025;strokeColor=#6F0000;strokeWidth=5;" edge="1" parent="1" source="EFb9O_KWn0DuL2CM1pZe-91" target="EFb9O_KWn0DuL2CM1pZe-84">
          <mxGeometry relative="1" as="geometry" />
        </mxCell>
        <mxCell id="EFb9O_KWn0DuL2CM1pZe-91" value="&lt;font style=&quot;font-size: 20px;&quot;&gt;KORISNIK&amp;nbsp;&lt;/font&gt;" style="rounded=1;whiteSpace=wrap;html=1;arcSize=0;" vertex="1" parent="1">
          <mxGeometry x="-1640" y="4590" width="215" height="120" as="geometry" />
        </mxCell>
        <mxCell id="EFb9O_KWn0DuL2CM1pZe-94" value="&lt;span style=&quot;font-size: 20px;&quot;&gt;UNOS PODATAKA ZA RACUN&lt;/span&gt;" style="text;html=1;align=center;verticalAlign=middle;resizable=0;points=[];autosize=1;strokeColor=none;fillColor=none;" vertex="1" parent="1">
          <mxGeometry x="-1400" y="4600" width="300" height="40" as="geometry" />
        </mxCell>
        <mxCell id="EFb9O_KWn0DuL2CM1pZe-95" value="&lt;font style=&quot;font-size: 20px;&quot;&gt;BANKA&lt;/font&gt;" style="rounded=1;whiteSpace=wrap;html=1;arcSize=0;" vertex="1" parent="1">
          <mxGeometry x="-1635" y="4890" width="215" height="120" as="geometry" />
        </mxCell>
        <mxCell id="EFb9O_KWn0DuL2CM1pZe-98" value="&lt;span style=&quot;font-size: 20px;&quot;&gt;ZAHTEV ZA IZVRSENJE PLACANJA&lt;/span&gt;" style="text;html=1;align=center;verticalAlign=middle;resizable=0;points=[];autosize=1;strokeColor=none;fillColor=none;" vertex="1" parent="1">
          <mxGeometry x="-1410" y="4930" width="360" height="40" as="geometry" />
        </mxCell>
        <mxCell id="EFb9O_KWn0DuL2CM1pZe-99" value="" style="group" vertex="1" connectable="0" parent="1">
          <mxGeometry x="-1630" y="5180" width="150" height="240" as="geometry" />
        </mxCell>
        <mxCell id="EFb9O_KWn0DuL2CM1pZe-100" value="&lt;font style=&quot;font-size: 20px;&quot;&gt;TRANSAKCIJE&lt;/font&gt;" style="shape=cylinder3;whiteSpace=wrap;html=1;boundedLbl=1;backgroundOutline=1;size=15;" vertex="1" parent="EFb9O_KWn0DuL2CM1pZe-99">
          <mxGeometry width="150" height="239.99999999999997" as="geometry" />
        </mxCell>
        <mxCell id="EFb9O_KWn0DuL2CM1pZe-101" value="&lt;font style=&quot;font-size: 20px;&quot;&gt;D1&lt;/font&gt;" style="text;html=1;align=center;verticalAlign=middle;resizable=0;points=[];autosize=1;strokeColor=none;fillColor=none;" vertex="1" parent="EFb9O_KWn0DuL2CM1pZe-99">
          <mxGeometry x="55" y="152.72727272727272" width="50" height="40" as="geometry" />
        </mxCell>
        <mxCell id="EFb9O_KWn0DuL2CM1pZe-102" style="edgeStyle=orthogonalEdgeStyle;rounded=0;orthogonalLoop=1;jettySize=auto;html=1;exitX=1;exitY=0.5;exitDx=0;exitDy=0;entryX=0.998;entryY=0.856;entryDx=0;entryDy=0;entryPerimeter=0;fillColor=#60a917;strokeColor=#2D7600;strokeWidth=5;" edge="1" parent="1" source="EFb9O_KWn0DuL2CM1pZe-89" target="EFb9O_KWn0DuL2CM1pZe-100">
          <mxGeometry relative="1" as="geometry" />
        </mxCell>
        <mxCell id="EFb9O_KWn0DuL2CM1pZe-103" value="&lt;span style=&quot;font-size: 20px;&quot;&gt;ZAPIS PLACANJA&amp;nbsp;&lt;/span&gt;" style="text;html=1;align=center;verticalAlign=middle;resizable=0;points=[];autosize=1;strokeColor=none;fillColor=none;" vertex="1" parent="1">
          <mxGeometry x="-1370" y="5330" width="190" height="40" as="geometry" />
        </mxCell>
        <mxCell id="EFb9O_KWn0DuL2CM1pZe-105" value="&lt;span style=&quot;font-size: 20px;&quot;&gt;ODABIR VRSTE RACUNA&amp;nbsp;&lt;/span&gt;" style="text;html=1;align=center;verticalAlign=middle;resizable=0;points=[];autosize=1;strokeColor=none;fillColor=none;" vertex="1" parent="1">
          <mxGeometry x="-1445" y="4300" width="270" height="40" as="geometry" />
        </mxCell>
        <mxCell id="EFb9O_KWn0DuL2CM1pZe-108" style="edgeStyle=orthogonalEdgeStyle;rounded=0;orthogonalLoop=1;jettySize=auto;html=1;exitX=0.5;exitY=0;exitDx=0;exitDy=0;entryX=0.428;entryY=0.966;entryDx=0;entryDy=0;entryPerimeter=0;strokeWidth=5;fillColor=#a20025;strokeColor=#6F0000;" edge="1" parent="1" source="EFb9O_KWn0DuL2CM1pZe-88" target="EFb9O_KWn0DuL2CM1pZe-89">
          <mxGeometry relative="1" as="geometry" />
        </mxCell>
        <mxCell id="EFb9O_KWn0DuL2CM1pZe-109" style="edgeStyle=orthogonalEdgeStyle;rounded=0;orthogonalLoop=1;jettySize=auto;html=1;exitX=0;exitY=0;exitDx=0;exitDy=67.5;exitPerimeter=0;entryX=0;entryY=0.5;entryDx=0;entryDy=0;fillColor=#0050ef;strokeColor=#001DBC;strokeWidth=5;" edge="1" parent="1" source="EFb9O_KWn0DuL2CM1pZe-100" target="EFb9O_KWn0DuL2CM1pZe-91">
          <mxGeometry relative="1" as="geometry" />
        </mxCell>
        <mxCell id="EFb9O_KWn0DuL2CM1pZe-110" value="&lt;span style=&quot;font-size: 20px;&quot;&gt;PROVERA DA LI PODRZAVA AUTOMASKO PLA.&lt;/span&gt;" style="text;html=1;align=center;verticalAlign=middle;resizable=0;points=[];autosize=1;strokeColor=none;fillColor=none;" vertex="1" parent="1">
          <mxGeometry x="-680" y="4300" width="470" height="40" as="geometry" />
        </mxCell>
        <mxCell id="EFb9O_KWn0DuL2CM1pZe-111" value="&lt;span style=&quot;font-size: 20px;&quot;&gt;USPESNA/NEUSPESNA TRANAKCIJA&lt;/span&gt;" style="text;html=1;align=center;verticalAlign=middle;resizable=0;points=[];autosize=1;strokeColor=none;fillColor=none;" vertex="1" parent="1">
          <mxGeometry x="-1630" y="4770" width="380" height="40" as="geometry" />
        </mxCell>
        <mxCell id="EFb9O_KWn0DuL2CM1pZe-112" value="" style="endArrow=none;html=1;rounded=0;fillColor=#a20025;strokeColor=light-dark(#6F0000,#FF0101);strokeWidth=12;" edge="1" parent="1">
          <mxGeometry width="50" height="50" relative="1" as="geometry">
            <mxPoint x="-1680" y="5470" as="sourcePoint" />
            <mxPoint x="1700" y="5470" as="targetPoint" />
          </mxGeometry>
        </mxCell>
        <mxCell id="EFb9O_KWn0DuL2CM1pZe-113" value="" style="group" vertex="1" connectable="0" parent="1">
          <mxGeometry x="-140" y="5480" width="350" height="260" as="geometry" />
        </mxCell>
        <mxCell id="EFb9O_KWn0DuL2CM1pZe-114" value="&lt;font style=&quot;font-size: 30px;&quot;&gt;AUTOMASTKO PLACANJE&amp;nbsp;&lt;/font&gt;" style="ellipse;whiteSpace=wrap;html=1;" vertex="1" parent="EFb9O_KWn0DuL2CM1pZe-113">
          <mxGeometry width="350" height="214.1176470588235" as="geometry" />
        </mxCell>
        <mxCell id="EFb9O_KWn0DuL2CM1pZe-115" value="&lt;font style=&quot;font-size: 50px;&quot;&gt;3&lt;/font&gt;&lt;div style=&quot;font-size: 30px;&quot;&gt;&lt;br&gt;&lt;/div&gt;" style="text;html=1;align=center;verticalAlign=middle;resizable=0;points=[];autosize=1;strokeColor=none;fillColor=none;" vertex="1" parent="EFb9O_KWn0DuL2CM1pZe-113">
          <mxGeometry x="149.99692307692308" y="140.00294117647059" width="50" height="110" as="geometry" />
        </mxCell>
        <mxCell id="EFb9O_KWn0DuL2CM1pZe-134" style="edgeStyle=orthogonalEdgeStyle;rounded=0;orthogonalLoop=1;jettySize=auto;html=1;exitX=1;exitY=0.5;exitDx=0;exitDy=0;entryX=0.5;entryY=0;entryDx=0;entryDy=0;strokeWidth=5;fillColor=#a20025;strokeColor=#6F0000;" edge="1" parent="1" source="EFb9O_KWn0DuL2CM1pZe-116" target="EFb9O_KWn0DuL2CM1pZe-117">
          <mxGeometry relative="1" as="geometry" />
        </mxCell>
        <mxCell id="EFb9O_KWn0DuL2CM1pZe-116" value="&lt;span style=&quot;font-size: 20px;&quot;&gt;PREGLED DOSTUPNIH RACUNA ZA AUTOMATSKO PLACANJE&lt;/span&gt;&lt;div&gt;&lt;span style=&quot;font-size: 20px;&quot;&gt;3.1&lt;/span&gt;&lt;/div&gt;" style="ellipse;whiteSpace=wrap;html=1;" vertex="1" parent="1">
          <mxGeometry x="-1010" y="5550" width="307.5" height="220" as="geometry" />
        </mxCell>
        <mxCell id="EFb9O_KWn0DuL2CM1pZe-131" style="edgeStyle=orthogonalEdgeStyle;rounded=0;orthogonalLoop=1;jettySize=auto;html=1;exitX=1;exitY=0;exitDx=0;exitDy=0;entryX=0.5;entryY=0;entryDx=0;entryDy=0;strokeWidth=5;fillColor=#a20025;strokeColor=#6F0000;" edge="1" parent="1" source="EFb9O_KWn0DuL2CM1pZe-117" target="EFb9O_KWn0DuL2CM1pZe-119">
          <mxGeometry relative="1" as="geometry" />
        </mxCell>
        <mxCell id="EFb9O_KWn0DuL2CM1pZe-135" style="edgeStyle=orthogonalEdgeStyle;rounded=0;orthogonalLoop=1;jettySize=auto;html=1;exitX=1;exitY=0.5;exitDx=0;exitDy=0;entryX=0;entryY=0.5;entryDx=0;entryDy=0;strokeWidth=5;fillColor=#a20025;strokeColor=#6F0000;" edge="1" parent="1" source="EFb9O_KWn0DuL2CM1pZe-117" target="EFb9O_KWn0DuL2CM1pZe-118">
          <mxGeometry relative="1" as="geometry" />
        </mxCell>
        <mxCell id="EFb9O_KWn0DuL2CM1pZe-117" value="&lt;span style=&quot;font-size: 20px;&quot;&gt;ODABIR DATUMA IZVRSENJA&lt;/span&gt;&lt;div&gt;&lt;span style=&quot;font-size: 20px;&quot;&gt;3.2&lt;/span&gt;&lt;/div&gt;" style="ellipse;whiteSpace=wrap;html=1;" vertex="1" parent="1">
          <mxGeometry x="-682.5" y="5760" width="307.5" height="220" as="geometry" />
        </mxCell>
        <mxCell id="EFb9O_KWn0DuL2CM1pZe-118" value="&lt;span style=&quot;font-size: 20px;&quot;&gt;IZBOR KARTICE&amp;nbsp;&lt;/span&gt;&lt;div&gt;&lt;span style=&quot;font-size: 20px;&quot;&gt;3.3&lt;/span&gt;&lt;/div&gt;" style="ellipse;whiteSpace=wrap;html=1;" vertex="1" parent="1">
          <mxGeometry x="-180" y="5810" width="307.5" height="220" as="geometry" />
        </mxCell>
        <mxCell id="EFb9O_KWn0DuL2CM1pZe-119" value="&lt;span style=&quot;font-size: 20px;&quot;&gt;CUVANJE PODATAKA U SKALDISTE&amp;nbsp;&lt;/span&gt;&lt;div&gt;&lt;span style=&quot;font-size: 20px;&quot;&gt;3.4&lt;/span&gt;&lt;/div&gt;" style="ellipse;whiteSpace=wrap;html=1;" vertex="1" parent="1">
          <mxGeometry x="222.5" y="5750" width="307.5" height="220" as="geometry" />
        </mxCell>
        <mxCell id="EFb9O_KWn0DuL2CM1pZe-136" style="edgeStyle=orthogonalEdgeStyle;rounded=0;orthogonalLoop=1;jettySize=auto;html=1;exitX=0.5;exitY=0;exitDx=0;exitDy=0;fillColor=#0050ef;strokeColor=#001DBC;strokeWidth=5;" edge="1" parent="1" source="EFb9O_KWn0DuL2CM1pZe-120">
          <mxGeometry relative="1" as="geometry">
            <mxPoint x="690" y="5260" as="targetPoint" />
          </mxGeometry>
        </mxCell>
        <mxCell id="EFb9O_KWn0DuL2CM1pZe-137" style="edgeStyle=orthogonalEdgeStyle;rounded=0;orthogonalLoop=1;jettySize=auto;html=1;exitX=0.5;exitY=1;exitDx=0;exitDy=0;entryX=0.5;entryY=1;entryDx=0;entryDy=0;fillColor=#a20025;strokeColor=#6F0000;strokeWidth=5;" edge="1" parent="1" source="EFb9O_KWn0DuL2CM1pZe-120" target="EFb9O_KWn0DuL2CM1pZe-121">
          <mxGeometry relative="1" as="geometry" />
        </mxCell>
        <mxCell id="EFb9O_KWn0DuL2CM1pZe-120" value="&lt;span style=&quot;font-size: 20px;&quot;&gt;PERIODICNO PROVERAVANJE DATUMA I AUTOMASKO POKRETANJE PLACANJA&amp;nbsp;&lt;/span&gt;&lt;div&gt;&lt;span style=&quot;font-size: 20px;&quot;&gt;3.5&lt;/span&gt;&lt;/div&gt;" style="ellipse;whiteSpace=wrap;html=1;" vertex="1" parent="1">
          <mxGeometry x="510" y="5850" width="360" height="240" as="geometry" />
        </mxCell>
        <mxCell id="EFb9O_KWn0DuL2CM1pZe-126" style="edgeStyle=orthogonalEdgeStyle;rounded=0;orthogonalLoop=1;jettySize=auto;html=1;exitX=1;exitY=0.25;exitDx=0;exitDy=0;entryX=0;entryY=0.5;entryDx=0;entryDy=0;strokeWidth=5;fillColor=#a20025;strokeColor=#6F0000;" edge="1" parent="1" source="EFb9O_KWn0DuL2CM1pZe-121" target="EFb9O_KWn0DuL2CM1pZe-117">
          <mxGeometry relative="1" as="geometry" />
        </mxCell>
        <mxCell id="EFb9O_KWn0DuL2CM1pZe-127" style="edgeStyle=orthogonalEdgeStyle;rounded=0;orthogonalLoop=1;jettySize=auto;html=1;exitX=1;exitY=0.75;exitDx=0;exitDy=0;entryX=0.5;entryY=1;entryDx=0;entryDy=0;fillColor=#a20025;strokeColor=#6F0000;strokeWidth=5;" edge="1" parent="1" source="EFb9O_KWn0DuL2CM1pZe-121" target="EFb9O_KWn0DuL2CM1pZe-118">
          <mxGeometry relative="1" as="geometry" />
        </mxCell>
        <mxCell id="EFb9O_KWn0DuL2CM1pZe-132" style="edgeStyle=orthogonalEdgeStyle;rounded=0;orthogonalLoop=1;jettySize=auto;html=1;exitX=0.75;exitY=0;exitDx=0;exitDy=0;entryX=0;entryY=0.5;entryDx=0;entryDy=0;fillColor=#a20025;strokeColor=#6F0000;strokeWidth=5;" edge="1" parent="1" source="EFb9O_KWn0DuL2CM1pZe-121" target="EFb9O_KWn0DuL2CM1pZe-116">
          <mxGeometry relative="1" as="geometry" />
        </mxCell>
        <mxCell id="EFb9O_KWn0DuL2CM1pZe-121" value="&lt;font style=&quot;font-size: 20px;&quot;&gt;KORISNIK&amp;nbsp;&lt;/font&gt;" style="rounded=1;whiteSpace=wrap;html=1;arcSize=0;" vertex="1" parent="1">
          <mxGeometry x="-1660" y="5840" width="215" height="120" as="geometry" />
        </mxCell>
        <mxCell id="EFb9O_KWn0DuL2CM1pZe-122" value="g" style="group" vertex="1" connectable="0" parent="1">
          <mxGeometry x="-1610" y="6380" width="150" height="230" as="geometry" />
        </mxCell>
        <mxCell id="EFb9O_KWn0DuL2CM1pZe-123" value="&lt;font style=&quot;font-size: 20px;&quot;&gt;AUTOMATSKA PLACANJA&amp;nbsp;&lt;/font&gt;" style="shape=cylinder3;whiteSpace=wrap;html=1;boundedLbl=1;backgroundOutline=1;size=15;" vertex="1" parent="EFb9O_KWn0DuL2CM1pZe-122">
          <mxGeometry width="150" height="230" as="geometry" />
        </mxCell>
        <mxCell id="EFb9O_KWn0DuL2CM1pZe-124" value="&lt;font style=&quot;font-size: 20px;&quot;&gt;D3&lt;/font&gt;" style="text;html=1;align=center;verticalAlign=middle;resizable=0;points=[];autosize=1;strokeColor=none;fillColor=none;" vertex="1" parent="EFb9O_KWn0DuL2CM1pZe-122">
          <mxGeometry x="50" y="170" width="50" height="40" as="geometry" />
        </mxCell>
        <mxCell id="EFb9O_KWn0DuL2CM1pZe-129" style="edgeStyle=orthogonalEdgeStyle;rounded=0;orthogonalLoop=1;jettySize=auto;html=1;exitX=0.5;exitY=1;exitDx=0;exitDy=0;entryX=1.004;entryY=0.813;entryDx=0;entryDy=0;entryPerimeter=0;fillColor=#60a917;strokeColor=#2D7600;strokeWidth=5;" edge="1" parent="1" source="EFb9O_KWn0DuL2CM1pZe-119" target="EFb9O_KWn0DuL2CM1pZe-123">
          <mxGeometry relative="1" as="geometry" />
        </mxCell>
        <mxCell id="EFb9O_KWn0DuL2CM1pZe-130" style="edgeStyle=orthogonalEdgeStyle;rounded=0;orthogonalLoop=1;jettySize=auto;html=1;exitX=1;exitY=0.5;exitDx=0;exitDy=0;entryX=-0.008;entryY=0.591;entryDx=0;entryDy=0;entryPerimeter=0;fillColor=#a20025;strokeColor=#6F0000;strokeWidth=5;" edge="1" parent="1" source="EFb9O_KWn0DuL2CM1pZe-118" target="EFb9O_KWn0DuL2CM1pZe-119">
          <mxGeometry relative="1" as="geometry" />
        </mxCell>
        <mxCell id="EFb9O_KWn0DuL2CM1pZe-133" value="&lt;span style=&quot;font-size: 20px;&quot;&gt;ODABIR AUTOMASKOG RACUNA&amp;nbsp;&lt;/span&gt;" style="text;html=1;align=center;verticalAlign=middle;resizable=0;points=[];autosize=1;strokeColor=none;fillColor=none;" vertex="1" parent="1">
          <mxGeometry x="-1490" y="5610" width="340" height="40" as="geometry" />
        </mxCell>
        <mxCell id="EFb9O_KWn0DuL2CM1pZe-138" value="" style="endArrow=none;html=1;rounded=0;fillColor=#a20025;strokeColor=light-dark(#6F0000,#FF0101);strokeWidth=12;" edge="1" parent="1">
          <mxGeometry width="50" height="50" relative="1" as="geometry">
            <mxPoint x="-1670" y="6670" as="sourcePoint" />
            <mxPoint x="1710" y="6670" as="targetPoint" />
          </mxGeometry>
        </mxCell>
        <mxCell id="EFb9O_KWn0DuL2CM1pZe-139" value="" style="group" vertex="1" connectable="0" parent="1">
          <mxGeometry x="-180" y="6690" width="440" height="340" as="geometry" />
        </mxCell>
        <mxCell id="EFb9O_KWn0DuL2CM1pZe-140" value="&lt;font style=&quot;font-size: 30px;&quot;&gt;UPRAVLJANJE KARTICAMA&lt;/font&gt;" style="ellipse;whiteSpace=wrap;html=1;" vertex="1" parent="EFb9O_KWn0DuL2CM1pZe-139">
          <mxGeometry width="440" height="264.44444444444446" as="geometry" />
        </mxCell>
        <mxCell id="EFb9O_KWn0DuL2CM1pZe-141" value="&lt;font style=&quot;font-size: 50px;&quot;&gt;4&lt;/font&gt;&lt;div style=&quot;font-size: 30px;&quot;&gt;&lt;br&gt;&lt;/div&gt;" style="text;html=1;align=center;verticalAlign=middle;resizable=0;points=[];autosize=1;strokeColor=none;fillColor=none;" vertex="1" parent="EFb9O_KWn0DuL2CM1pZe-139">
          <mxGeometry x="194.99523809523808" y="154.44" width="50" height="110" as="geometry" />
        </mxCell>
        <mxCell id="EFb9O_KWn0DuL2CM1pZe-154" style="edgeStyle=orthogonalEdgeStyle;rounded=0;orthogonalLoop=1;jettySize=auto;html=1;exitX=1;exitY=0.5;exitDx=0;exitDy=0;entryX=0.5;entryY=0;entryDx=0;entryDy=0;fillColor=#a20025;strokeColor=#6F0000;strokeWidth=5;" edge="1" parent="1" source="EFb9O_KWn0DuL2CM1pZe-142" target="EFb9O_KWn0DuL2CM1pZe-143">
          <mxGeometry relative="1" as="geometry" />
        </mxCell>
        <mxCell id="EFb9O_KWn0DuL2CM1pZe-142" value="&lt;span style=&quot;font-size: 20px;&quot;&gt;DODAVANJE NOVE KARTICE&amp;nbsp;&lt;/span&gt;&lt;div&gt;&lt;span style=&quot;font-size: 20px;&quot;&gt;4.1&lt;/span&gt;&lt;/div&gt;" style="ellipse;whiteSpace=wrap;html=1;" vertex="1" parent="1">
          <mxGeometry x="-970" y="6850" width="270" height="190" as="geometry" />
        </mxCell>
        <mxCell id="EFb9O_KWn0DuL2CM1pZe-143" value="&lt;span style=&quot;font-size: 20px;&quot;&gt;VALIDACIJA KARTICE KDO BANKE&amp;nbsp;&lt;/span&gt;&lt;div&gt;&lt;span style=&quot;font-size: 20px;&quot;&gt;4.2&lt;/span&gt;&lt;/div&gt;" style="ellipse;whiteSpace=wrap;html=1;" vertex="1" parent="1">
          <mxGeometry x="-640" y="6960" width="270" height="190" as="geometry" />
        </mxCell>
        <mxCell id="EFb9O_KWn0DuL2CM1pZe-144" value="&lt;span style=&quot;font-size: 20px;&quot;&gt;AZURIRANJE PODATAKA O KARTICI&amp;nbsp;&lt;/span&gt;&lt;div&gt;&lt;span style=&quot;font-size: 20px;&quot;&gt;4.3&lt;/span&gt;&lt;/div&gt;" style="ellipse;whiteSpace=wrap;html=1;" vertex="1" parent="1">
          <mxGeometry x="-230" y="7010" width="270" height="190" as="geometry" />
        </mxCell>
        <mxCell id="EFb9O_KWn0DuL2CM1pZe-145" value="&lt;span style=&quot;font-size: 20px;&quot;&gt;BRISANJE KARTICE&amp;nbsp;&lt;/span&gt;&lt;div&gt;&lt;span style=&quot;font-size: 20px;&quot;&gt;4.4&lt;/span&gt;&lt;/div&gt;" style="ellipse;whiteSpace=wrap;html=1;" vertex="1" parent="1">
          <mxGeometry x="80" y="7070" width="270" height="190" as="geometry" />
        </mxCell>
        <mxCell id="EFb9O_KWn0DuL2CM1pZe-164" style="edgeStyle=orthogonalEdgeStyle;rounded=0;orthogonalLoop=1;jettySize=auto;html=1;exitX=0.5;exitY=0;exitDx=0;exitDy=0;fillColor=#0050ef;strokeColor=#001DBC;strokeWidth=5;" edge="1" parent="1" source="EFb9O_KWn0DuL2CM1pZe-146" target="EFb9O_KWn0DuL2CM1pZe-147">
          <mxGeometry relative="1" as="geometry" />
        </mxCell>
        <mxCell id="EFb9O_KWn0DuL2CM1pZe-146" value="&lt;span style=&quot;font-size: 20px;&quot;&gt;CUVANJE/ IZMENE U SKALDISTU&amp;nbsp;&lt;/span&gt;&lt;div&gt;&lt;span style=&quot;font-size: 20px;&quot;&gt;4.5&lt;/span&gt;&lt;/div&gt;" style="ellipse;whiteSpace=wrap;html=1;" vertex="1" parent="1">
          <mxGeometry x="-610" y="7560" width="270" height="190" as="geometry" />
        </mxCell>
        <mxCell id="EFb9O_KWn0DuL2CM1pZe-151" style="edgeStyle=orthogonalEdgeStyle;rounded=0;orthogonalLoop=1;jettySize=auto;html=1;exitX=0.5;exitY=0;exitDx=0;exitDy=0;entryX=0;entryY=0.5;entryDx=0;entryDy=0;fillColor=#a20025;strokeColor=#6F0000;strokeWidth=5;" edge="1" parent="1" source="EFb9O_KWn0DuL2CM1pZe-147" target="EFb9O_KWn0DuL2CM1pZe-142">
          <mxGeometry relative="1" as="geometry" />
        </mxCell>
        <mxCell id="EFb9O_KWn0DuL2CM1pZe-152" style="edgeStyle=orthogonalEdgeStyle;rounded=0;orthogonalLoop=1;jettySize=auto;html=1;exitX=1;exitY=0.25;exitDx=0;exitDy=0;entryX=0.5;entryY=1;entryDx=0;entryDy=0;fillColor=#a20025;strokeColor=#6F0000;strokeWidth=5;" edge="1" parent="1" source="EFb9O_KWn0DuL2CM1pZe-147" target="EFb9O_KWn0DuL2CM1pZe-144">
          <mxGeometry relative="1" as="geometry" />
        </mxCell>
        <mxCell id="EFb9O_KWn0DuL2CM1pZe-153" style="edgeStyle=orthogonalEdgeStyle;rounded=0;orthogonalLoop=1;jettySize=auto;html=1;exitX=1;exitY=1;exitDx=0;exitDy=0;entryX=0.5;entryY=1;entryDx=0;entryDy=0;fillColor=#a20025;strokeColor=#6F0000;strokeWidth=5;" edge="1" parent="1" source="EFb9O_KWn0DuL2CM1pZe-147" target="EFb9O_KWn0DuL2CM1pZe-145">
          <mxGeometry relative="1" as="geometry" />
        </mxCell>
        <mxCell id="EFb9O_KWn0DuL2CM1pZe-147" value="&lt;font style=&quot;font-size: 20px;&quot;&gt;KORISNIK&amp;nbsp;&lt;/font&gt;" style="rounded=1;whiteSpace=wrap;html=1;arcSize=0;" vertex="1" parent="1">
          <mxGeometry x="-1675" y="7070" width="215" height="120" as="geometry" />
        </mxCell>
        <mxCell id="EFb9O_KWn0DuL2CM1pZe-148" value="" style="group" vertex="1" connectable="0" parent="1">
          <mxGeometry x="-1690" y="7420" width="140" height="210" as="geometry" />
        </mxCell>
        <mxCell id="EFb9O_KWn0DuL2CM1pZe-149" value="&lt;font style=&quot;font-size: 20px;&quot;&gt;KARTICE&lt;/font&gt;" style="shape=cylinder3;whiteSpace=wrap;html=1;boundedLbl=1;backgroundOutline=1;size=15;" vertex="1" parent="EFb9O_KWn0DuL2CM1pZe-148">
          <mxGeometry width="140" height="210" as="geometry" />
        </mxCell>
        <mxCell id="EFb9O_KWn0DuL2CM1pZe-150" value="&lt;font style=&quot;font-size: 20px;&quot;&gt;D2&lt;/font&gt;" style="text;html=1;align=center;verticalAlign=middle;resizable=0;points=[];autosize=1;strokeColor=none;fillColor=none;" vertex="1" parent="EFb9O_KWn0DuL2CM1pZe-148">
          <mxGeometry x="45" y="140" width="50" height="40" as="geometry" />
        </mxCell>
        <mxCell id="EFb9O_KWn0DuL2CM1pZe-155" style="edgeStyle=orthogonalEdgeStyle;rounded=0;orthogonalLoop=1;jettySize=auto;html=1;exitX=0;exitY=1;exitDx=0;exitDy=0;entryX=1;entryY=0;entryDx=0;entryDy=15;entryPerimeter=0;fillColor=#60a917;strokeColor=#2D7600;strokeWidth=5;" edge="1" parent="1" source="EFb9O_KWn0DuL2CM1pZe-142" target="EFb9O_KWn0DuL2CM1pZe-149">
          <mxGeometry relative="1" as="geometry" />
        </mxCell>
        <mxCell id="EFb9O_KWn0DuL2CM1pZe-156" style="edgeStyle=orthogonalEdgeStyle;rounded=0;orthogonalLoop=1;jettySize=auto;html=1;exitX=0;exitY=0.5;exitDx=0;exitDy=0;entryX=1;entryY=0;entryDx=0;entryDy=60;entryPerimeter=0;fillColor=#60a917;strokeColor=#2D7600;strokeWidth=5;" edge="1" parent="1" source="EFb9O_KWn0DuL2CM1pZe-143" target="EFb9O_KWn0DuL2CM1pZe-149">
          <mxGeometry relative="1" as="geometry" />
        </mxCell>
        <mxCell id="EFb9O_KWn0DuL2CM1pZe-157" style="edgeStyle=orthogonalEdgeStyle;rounded=0;orthogonalLoop=1;jettySize=auto;html=1;exitX=0;exitY=1;exitDx=0;exitDy=0;entryX=1;entryY=0.5;entryDx=0;entryDy=0;entryPerimeter=0;fillColor=#60a917;strokeColor=#2D7600;strokeWidth=5;" edge="1" parent="1" source="EFb9O_KWn0DuL2CM1pZe-144" target="EFb9O_KWn0DuL2CM1pZe-149">
          <mxGeometry relative="1" as="geometry" />
        </mxCell>
        <mxCell id="EFb9O_KWn0DuL2CM1pZe-158" style="edgeStyle=orthogonalEdgeStyle;rounded=0;orthogonalLoop=1;jettySize=auto;html=1;exitX=0;exitY=1;exitDx=0;exitDy=0;entryX=1;entryY=0;entryDx=0;entryDy=150;entryPerimeter=0;fillColor=#60a917;strokeColor=#2D7600;strokeWidth=5;" edge="1" parent="1" source="EFb9O_KWn0DuL2CM1pZe-145" target="EFb9O_KWn0DuL2CM1pZe-149">
          <mxGeometry relative="1" as="geometry" />
        </mxCell>
        <mxCell id="EFb9O_KWn0DuL2CM1pZe-159" style="edgeStyle=orthogonalEdgeStyle;rounded=0;orthogonalLoop=1;jettySize=auto;html=1;exitX=0.5;exitY=1;exitDx=0;exitDy=0;entryX=1;entryY=1;entryDx=0;entryDy=-15;entryPerimeter=0;fillColor=#60a917;strokeColor=#2D7600;strokeWidth=5;" edge="1" parent="1" source="EFb9O_KWn0DuL2CM1pZe-146" target="EFb9O_KWn0DuL2CM1pZe-149">
          <mxGeometry relative="1" as="geometry" />
        </mxCell>
        <mxCell id="EFb9O_KWn0DuL2CM1pZe-160" style="edgeStyle=orthogonalEdgeStyle;rounded=0;orthogonalLoop=1;jettySize=auto;html=1;exitX=0.855;exitY=0;exitDx=0;exitDy=4.35;exitPerimeter=0;entryX=1;entryY=1;entryDx=0;entryDy=0;fillColor=#6a00ff;strokeColor=#3700CC;strokeWidth=5;" edge="1" parent="1" source="EFb9O_KWn0DuL2CM1pZe-149" target="EFb9O_KWn0DuL2CM1pZe-143">
          <mxGeometry relative="1" as="geometry" />
        </mxCell>
        <mxCell id="EFb9O_KWn0DuL2CM1pZe-161" value="&lt;span style=&quot;font-size: 20px;&quot;&gt;ISPRAVNOST KARTICE&lt;/span&gt;" style="text;html=1;align=center;verticalAlign=middle;resizable=0;points=[];autosize=1;strokeColor=none;fillColor=none;" vertex="1" parent="1">
          <mxGeometry x="-682.5" y="7330" width="240" height="40" as="geometry" />
        </mxCell>
        <mxCell id="EFb9O_KWn0DuL2CM1pZe-163" style="edgeStyle=orthogonalEdgeStyle;rounded=0;orthogonalLoop=1;jettySize=auto;html=1;entryX=0.5;entryY=1;entryDx=0;entryDy=0;entryPerimeter=0;fillColor=#60a917;strokeColor=#2D7600;strokeWidth=5;exitX=0;exitY=0.5;exitDx=0;exitDy=0;" edge="1" parent="1" source="EFb9O_KWn0DuL2CM1pZe-146" target="EFb9O_KWn0DuL2CM1pZe-149">
          <mxGeometry relative="1" as="geometry">
            <mxPoint x="420" y="7502" as="sourcePoint" />
          </mxGeometry>
        </mxCell>
        <mxCell id="EFb9O_KWn0DuL2CM1pZe-166" value="" style="endArrow=none;html=1;rounded=0;fillColor=#a20025;strokeColor=light-dark(#6F0000,#FF0101);strokeWidth=12;" edge="1" parent="1">
          <mxGeometry width="50" height="50" relative="1" as="geometry">
            <mxPoint x="-1660" y="7920" as="sourcePoint" />
            <mxPoint x="1720" y="7920" as="targetPoint" />
          </mxGeometry>
        </mxCell>
        <mxCell id="EFb9O_KWn0DuL2CM1pZe-167" value="" style="group" vertex="1" connectable="0" parent="1">
          <mxGeometry x="-57.5" y="7970" width="347.5" height="240" as="geometry" />
        </mxCell>
        <mxCell id="EFb9O_KWn0DuL2CM1pZe-168" value="&lt;font style=&quot;font-size: 30px;&quot;&gt;PREGLED ISTORIJE&lt;/font&gt;" style="ellipse;whiteSpace=wrap;html=1;" vertex="1" parent="EFb9O_KWn0DuL2CM1pZe-167">
          <mxGeometry width="347.5" height="240" as="geometry" />
        </mxCell>
        <mxCell id="EFb9O_KWn0DuL2CM1pZe-169" value="&lt;font style=&quot;font-size: 50px;&quot;&gt;5&lt;/font&gt;" style="text;html=1;align=center;verticalAlign=middle;resizable=0;points=[];autosize=1;strokeColor=none;fillColor=none;container=1;" vertex="1" parent="EFb9O_KWn0DuL2CM1pZe-167">
          <mxGeometry x="153.0654761904762" y="135.0607287449392" width="50" height="70" as="geometry" />
        </mxCell>
        <mxCell id="EFb9O_KWn0DuL2CM1pZe-177" style="edgeStyle=orthogonalEdgeStyle;rounded=0;orthogonalLoop=1;jettySize=auto;html=1;exitX=1;exitY=0.5;exitDx=0;exitDy=0;entryX=0;entryY=0;entryDx=0;entryDy=0;fillColor=#a20025;strokeColor=#6F0000;strokeWidth=5;" edge="1" parent="1" source="EFb9O_KWn0DuL2CM1pZe-170" target="EFb9O_KWn0DuL2CM1pZe-173">
          <mxGeometry relative="1" as="geometry" />
        </mxCell>
        <mxCell id="EFb9O_KWn0DuL2CM1pZe-170" value="&lt;span style=&quot;font-size: 20px;&quot;&gt;ZAHTEV KORISNIKA ZA PRIKAZ ISTORIJE&lt;/span&gt;&lt;div&gt;&lt;span style=&quot;font-size: 20px;&quot;&gt;5.1&lt;/span&gt;&lt;/div&gt;" style="ellipse;whiteSpace=wrap;html=1;" vertex="1" parent="1">
          <mxGeometry x="-750" y="8140" width="270" height="190" as="geometry" />
        </mxCell>
        <mxCell id="EFb9O_KWn0DuL2CM1pZe-184" style="edgeStyle=orthogonalEdgeStyle;rounded=0;orthogonalLoop=1;jettySize=auto;html=1;exitX=1;exitY=1;exitDx=0;exitDy=0;entryX=0;entryY=1;entryDx=0;entryDy=0;fillColor=#a20025;strokeColor=#6F0000;strokeWidth=5;" edge="1" parent="1" source="EFb9O_KWn0DuL2CM1pZe-172" target="EFb9O_KWn0DuL2CM1pZe-173">
          <mxGeometry relative="1" as="geometry" />
        </mxCell>
        <mxCell id="EFb9O_KWn0DuL2CM1pZe-172" value="&lt;span style=&quot;font-size: 20px;&quot;&gt;PREUZIMANJE PODATAKA IZ SKLADISTA&amp;nbsp;&lt;/span&gt;&lt;div&gt;&lt;span style=&quot;font-size: 20px;&quot;&gt;5.2&lt;/span&gt;&lt;/div&gt;" style="ellipse;whiteSpace=wrap;html=1;" vertex="1" parent="1">
          <mxGeometry x="-410" y="8300" width="270" height="190" as="geometry" />
        </mxCell>
        <mxCell id="EFb9O_KWn0DuL2CM1pZe-185" style="edgeStyle=orthogonalEdgeStyle;rounded=0;orthogonalLoop=1;jettySize=auto;html=1;exitX=1;exitY=0;exitDx=0;exitDy=0;entryX=0;entryY=0.5;entryDx=0;entryDy=0;fillColor=#a20025;strokeColor=#6F0000;strokeWidth=5;" edge="1" parent="1" source="EFb9O_KWn0DuL2CM1pZe-173" target="EFb9O_KWn0DuL2CM1pZe-174">
          <mxGeometry relative="1" as="geometry" />
        </mxCell>
        <mxCell id="EFb9O_KWn0DuL2CM1pZe-173" value="&lt;span style=&quot;font-size: 20px;&quot;&gt;FILTRIRANJE PO DATURUMU, VRSTI, KARTICI&amp;nbsp;&lt;/span&gt;&lt;div&gt;&lt;span style=&quot;font-size: 20px;&quot;&gt;5.3&lt;/span&gt;&lt;/div&gt;" style="ellipse;whiteSpace=wrap;html=1;" vertex="1" parent="1">
          <mxGeometry x="-20" y="8260" width="270" height="190" as="geometry" />
        </mxCell>
        <mxCell id="EFb9O_KWn0DuL2CM1pZe-188" style="edgeStyle=orthogonalEdgeStyle;rounded=0;orthogonalLoop=1;jettySize=auto;html=1;exitX=0;exitY=1;exitDx=0;exitDy=0;entryX=1;entryY=1;entryDx=0;entryDy=0;fillColor=#0050ef;strokeColor=#001DBC;strokeWidth=5;" edge="1" parent="1" source="EFb9O_KWn0DuL2CM1pZe-174" target="EFb9O_KWn0DuL2CM1pZe-175">
          <mxGeometry relative="1" as="geometry" />
        </mxCell>
        <mxCell id="EFb9O_KWn0DuL2CM1pZe-174" value="&lt;span style=&quot;font-size: 20px;&quot;&gt;PRIKAZ KORISNIKU&amp;nbsp;&lt;/span&gt;&lt;div&gt;&lt;span style=&quot;font-size: 20px;&quot;&gt;5.4&lt;/span&gt;&lt;/div&gt;" style="ellipse;whiteSpace=wrap;html=1;" vertex="1" parent="1">
          <mxGeometry x="400" y="8440" width="270" height="190" as="geometry" />
        </mxCell>
        <mxCell id="EFb9O_KWn0DuL2CM1pZe-176" style="edgeStyle=orthogonalEdgeStyle;rounded=0;orthogonalLoop=1;jettySize=auto;html=1;exitX=0.5;exitY=0;exitDx=0;exitDy=0;entryX=0;entryY=0.5;entryDx=0;entryDy=0;fillColor=#a20025;strokeColor=#6F0000;strokeWidth=5;" edge="1" parent="1" source="EFb9O_KWn0DuL2CM1pZe-175" target="EFb9O_KWn0DuL2CM1pZe-170">
          <mxGeometry relative="1" as="geometry" />
        </mxCell>
        <mxCell id="EFb9O_KWn0DuL2CM1pZe-175" value="&lt;font style=&quot;font-size: 20px;&quot;&gt;KORISNIK&amp;nbsp;&lt;/font&gt;" style="rounded=1;whiteSpace=wrap;html=1;arcSize=0;" vertex="1" parent="1">
          <mxGeometry x="-1675" y="8320" width="215" height="120" as="geometry" />
        </mxCell>
        <mxCell id="EFb9O_KWn0DuL2CM1pZe-178" value="" style="group" vertex="1" connectable="0" parent="1">
          <mxGeometry x="-1660" y="8610" width="150" height="240" as="geometry" />
        </mxCell>
        <mxCell id="EFb9O_KWn0DuL2CM1pZe-179" value="&lt;font style=&quot;font-size: 20px;&quot;&gt;TRANSAKCIJE&lt;/font&gt;" style="shape=cylinder3;whiteSpace=wrap;html=1;boundedLbl=1;backgroundOutline=1;size=15;" vertex="1" parent="EFb9O_KWn0DuL2CM1pZe-178">
          <mxGeometry width="150" height="239.99999999999997" as="geometry" />
        </mxCell>
        <mxCell id="EFb9O_KWn0DuL2CM1pZe-180" value="&lt;font style=&quot;font-size: 20px;&quot;&gt;D1&lt;/font&gt;" style="text;html=1;align=center;verticalAlign=middle;resizable=0;points=[];autosize=1;strokeColor=none;fillColor=none;" vertex="1" parent="EFb9O_KWn0DuL2CM1pZe-178">
          <mxGeometry x="55" y="152.72727272727272" width="50" height="40" as="geometry" />
        </mxCell>
        <mxCell id="EFb9O_KWn0DuL2CM1pZe-182" style="edgeStyle=orthogonalEdgeStyle;rounded=0;orthogonalLoop=1;jettySize=auto;html=1;exitX=1;exitY=0;exitDx=0;exitDy=172.5;exitPerimeter=0;entryX=0.5;entryY=1;entryDx=0;entryDy=0;fillColor=#60a917;strokeColor=#2D7600;strokeWidth=5;" edge="1" parent="1" source="EFb9O_KWn0DuL2CM1pZe-179" target="EFb9O_KWn0DuL2CM1pZe-172">
          <mxGeometry relative="1" as="geometry" />
        </mxCell>
        <mxCell id="EFb9O_KWn0DuL2CM1pZe-190" style="edgeStyle=orthogonalEdgeStyle;rounded=0;orthogonalLoop=1;jettySize=auto;html=1;exitX=0;exitY=0.5;exitDx=0;exitDy=0;entryX=0.727;entryY=0.021;entryDx=0;entryDy=0;entryPerimeter=0;fillColor=#1ba1e2;strokeColor=#006EAF;strokeWidth=5;" edge="1" parent="1" source="EFb9O_KWn0DuL2CM1pZe-27" target="EFb9O_KWn0DuL2CM1pZe-29">
          <mxGeometry relative="1" as="geometry" />
        </mxCell>
        <mxCell id="EFb9O_KWn0DuL2CM1pZe-192" style="edgeStyle=orthogonalEdgeStyle;rounded=0;orthogonalLoop=1;jettySize=auto;html=1;exitX=1;exitY=1;exitDx=0;exitDy=0;entryX=0.5;entryY=0;entryDx=0;entryDy=0;fillColor=#1ba1e2;strokeColor=#006EAF;strokeWidth=5;" edge="1" parent="1" source="EFb9O_KWn0DuL2CM1pZe-27" target="EFb9O_KWn0DuL2CM1pZe-31">
          <mxGeometry relative="1" as="geometry" />
        </mxCell>
        <mxCell id="EFb9O_KWn0DuL2CM1pZe-193" style="edgeStyle=orthogonalEdgeStyle;rounded=0;orthogonalLoop=1;jettySize=auto;html=1;exitX=1;exitY=0.5;exitDx=0;exitDy=0;entryX=0.407;entryY=0.043;entryDx=0;entryDy=0;entryPerimeter=0;fillColor=#1ba1e2;strokeColor=#006EAF;strokeWidth=5;" edge="1" parent="1" source="EFb9O_KWn0DuL2CM1pZe-27" target="EFb9O_KWn0DuL2CM1pZe-32">
          <mxGeometry relative="1" as="geometry" />
        </mxCell>
        <mxCell id="EFb9O_KWn0DuL2CM1pZe-195" style="edgeStyle=orthogonalEdgeStyle;rounded=0;orthogonalLoop=1;jettySize=auto;html=1;exitX=0;exitY=0.5;exitDx=0;exitDy=0;entryX=0.5;entryY=0;entryDx=0;entryDy=0;fillColor=#1ba1e2;strokeColor=#006EAF;strokeWidth=5;" edge="1" parent="1" source="EFb9O_KWn0DuL2CM1pZe-77" target="EFb9O_KWn0DuL2CM1pZe-84">
          <mxGeometry relative="1" as="geometry" />
        </mxCell>
        <mxCell id="EFb9O_KWn0DuL2CM1pZe-196" style="edgeStyle=orthogonalEdgeStyle;rounded=0;orthogonalLoop=1;jettySize=auto;html=1;exitX=0;exitY=1;exitDx=0;exitDy=0;fillColor=#1ba1e2;strokeColor=#006EAF;strokeWidth=5;" edge="1" parent="1" source="EFb9O_KWn0DuL2CM1pZe-77" target="EFb9O_KWn0DuL2CM1pZe-85">
          <mxGeometry relative="1" as="geometry" />
        </mxCell>
        <mxCell id="EFb9O_KWn0DuL2CM1pZe-199" style="edgeStyle=orthogonalEdgeStyle;rounded=0;orthogonalLoop=1;jettySize=auto;html=1;exitX=1;exitY=0;exitDx=0;exitDy=0;entryX=0.5;entryY=0;entryDx=0;entryDy=0;fillColor=#1ba1e2;strokeColor=#006EAF;strokeWidth=5;" edge="1" parent="1" source="EFb9O_KWn0DuL2CM1pZe-77" target="EFb9O_KWn0DuL2CM1pZe-89">
          <mxGeometry relative="1" as="geometry" />
        </mxCell>
        <mxCell id="EFb9O_KWn0DuL2CM1pZe-200" style="edgeStyle=orthogonalEdgeStyle;rounded=0;orthogonalLoop=1;jettySize=auto;html=1;exitX=1;exitY=0.5;exitDx=0;exitDy=0;entryX=0;entryY=0;entryDx=0;entryDy=0;fillColor=#1ba1e2;strokeColor=#006EAF;strokeWidth=5;" edge="1" parent="1" source="EFb9O_KWn0DuL2CM1pZe-77" target="EFb9O_KWn0DuL2CM1pZe-88">
          <mxGeometry relative="1" as="geometry" />
        </mxCell>
        <mxCell id="EFb9O_KWn0DuL2CM1pZe-201" style="edgeStyle=orthogonalEdgeStyle;rounded=0;orthogonalLoop=1;jettySize=auto;html=1;exitX=1;exitY=1;exitDx=0;exitDy=0;entryX=0;entryY=0;entryDx=0;entryDy=0;fillColor=#1ba1e2;strokeColor=#006EAF;strokeWidth=5;" edge="1" parent="1" source="EFb9O_KWn0DuL2CM1pZe-77" target="EFb9O_KWn0DuL2CM1pZe-87">
          <mxGeometry relative="1" as="geometry" />
        </mxCell>
        <mxCell id="EFb9O_KWn0DuL2CM1pZe-202" style="edgeStyle=orthogonalEdgeStyle;rounded=0;orthogonalLoop=1;jettySize=auto;html=1;exitX=0;exitY=0;exitDx=0;exitDy=0;entryX=0.694;entryY=0.033;entryDx=0;entryDy=0;entryPerimeter=0;fillColor=#1ba1e2;strokeColor=#006EAF;strokeWidth=5;" edge="1" parent="1" source="EFb9O_KWn0DuL2CM1pZe-114" target="EFb9O_KWn0DuL2CM1pZe-116">
          <mxGeometry relative="1" as="geometry" />
        </mxCell>
        <mxCell id="EFb9O_KWn0DuL2CM1pZe-203" style="edgeStyle=orthogonalEdgeStyle;rounded=0;orthogonalLoop=1;jettySize=auto;html=1;exitX=0;exitY=0.5;exitDx=0;exitDy=0;entryX=0.659;entryY=-0.001;entryDx=0;entryDy=0;entryPerimeter=0;fillColor=#1ba1e2;strokeColor=#006EAF;strokeWidth=5;" edge="1" parent="1" source="EFb9O_KWn0DuL2CM1pZe-114" target="EFb9O_KWn0DuL2CM1pZe-117">
          <mxGeometry relative="1" as="geometry" />
        </mxCell>
        <mxCell id="EFb9O_KWn0DuL2CM1pZe-204" style="edgeStyle=orthogonalEdgeStyle;rounded=0;orthogonalLoop=1;jettySize=auto;html=1;exitX=0;exitY=1;exitDx=0;exitDy=0;entryX=0;entryY=0;entryDx=0;entryDy=0;fillColor=#1ba1e2;strokeColor=#006EAF;strokeWidth=5;" edge="1" parent="1" source="EFb9O_KWn0DuL2CM1pZe-114" target="EFb9O_KWn0DuL2CM1pZe-118">
          <mxGeometry relative="1" as="geometry" />
        </mxCell>
        <mxCell id="EFb9O_KWn0DuL2CM1pZe-205" style="edgeStyle=orthogonalEdgeStyle;rounded=0;orthogonalLoop=1;jettySize=auto;html=1;exitX=1;exitY=1;exitDx=0;exitDy=0;entryX=0;entryY=0;entryDx=0;entryDy=0;fillColor=#1ba1e2;strokeColor=#006EAF;strokeWidth=5;" edge="1" parent="1" source="EFb9O_KWn0DuL2CM1pZe-114" target="EFb9O_KWn0DuL2CM1pZe-119">
          <mxGeometry relative="1" as="geometry" />
        </mxCell>
        <mxCell id="EFb9O_KWn0DuL2CM1pZe-206" style="edgeStyle=orthogonalEdgeStyle;rounded=0;orthogonalLoop=1;jettySize=auto;html=1;exitX=1;exitY=0.5;exitDx=0;exitDy=0;entryX=0;entryY=0;entryDx=0;entryDy=0;fillColor=#1ba1e2;strokeColor=#006EAF;strokeWidth=5;" edge="1" parent="1" source="EFb9O_KWn0DuL2CM1pZe-114" target="EFb9O_KWn0DuL2CM1pZe-120">
          <mxGeometry relative="1" as="geometry" />
        </mxCell>
        <mxCell id="EFb9O_KWn0DuL2CM1pZe-207" style="edgeStyle=orthogonalEdgeStyle;rounded=0;orthogonalLoop=1;jettySize=auto;html=1;exitX=0;exitY=0;exitDx=0;exitDy=0;entryX=0.5;entryY=0;entryDx=0;entryDy=0;fillColor=#1ba1e2;strokeColor=#006EAF;strokeWidth=5;" edge="1" parent="1" source="EFb9O_KWn0DuL2CM1pZe-140" target="EFb9O_KWn0DuL2CM1pZe-142">
          <mxGeometry relative="1" as="geometry" />
        </mxCell>
        <mxCell id="EFb9O_KWn0DuL2CM1pZe-208" style="edgeStyle=orthogonalEdgeStyle;rounded=0;orthogonalLoop=1;jettySize=auto;html=1;exitX=0;exitY=0.5;exitDx=0;exitDy=0;entryX=1;entryY=0;entryDx=0;entryDy=0;fillColor=#1ba1e2;strokeColor=#006EAF;strokeWidth=5;" edge="1" parent="1" source="EFb9O_KWn0DuL2CM1pZe-140" target="EFb9O_KWn0DuL2CM1pZe-143">
          <mxGeometry relative="1" as="geometry" />
        </mxCell>
        <mxCell id="EFb9O_KWn0DuL2CM1pZe-209" style="edgeStyle=orthogonalEdgeStyle;rounded=0;orthogonalLoop=1;jettySize=auto;html=1;exitX=1;exitY=0.5;exitDx=0;exitDy=0;entryX=1;entryY=0;entryDx=0;entryDy=0;fillColor=#1ba1e2;strokeColor=#006EAF;strokeWidth=5;" edge="1" parent="1" source="EFb9O_KWn0DuL2CM1pZe-140" target="EFb9O_KWn0DuL2CM1pZe-145">
          <mxGeometry relative="1" as="geometry" />
        </mxCell>
        <mxCell id="EFb9O_KWn0DuL2CM1pZe-211" style="edgeStyle=orthogonalEdgeStyle;rounded=0;orthogonalLoop=1;jettySize=auto;html=1;exitX=0;exitY=1;exitDx=0;exitDy=0;entryX=0.5;entryY=0;entryDx=0;entryDy=0;fillColor=#1ba1e2;strokeColor=#006EAF;strokeWidth=5;" edge="1" parent="1" source="EFb9O_KWn0DuL2CM1pZe-140" target="EFb9O_KWn0DuL2CM1pZe-144">
          <mxGeometry relative="1" as="geometry" />
        </mxCell>
        <mxCell id="EFb9O_KWn0DuL2CM1pZe-212" style="edgeStyle=orthogonalEdgeStyle;rounded=0;orthogonalLoop=1;jettySize=auto;html=1;exitX=0;exitY=0;exitDx=0;exitDy=0;entryX=0.5;entryY=0;entryDx=0;entryDy=0;fillColor=#1ba1e2;strokeColor=#006EAF;strokeWidth=5;" edge="1" parent="1" source="EFb9O_KWn0DuL2CM1pZe-168" target="EFb9O_KWn0DuL2CM1pZe-170">
          <mxGeometry relative="1" as="geometry" />
        </mxCell>
        <mxCell id="EFb9O_KWn0DuL2CM1pZe-213" style="edgeStyle=orthogonalEdgeStyle;rounded=0;orthogonalLoop=1;jettySize=auto;html=1;exitX=0;exitY=0.5;exitDx=0;exitDy=0;fillColor=#1ba1e2;strokeColor=#006EAF;strokeWidth=5;" edge="1" parent="1" source="EFb9O_KWn0DuL2CM1pZe-168" target="EFb9O_KWn0DuL2CM1pZe-172">
          <mxGeometry relative="1" as="geometry" />
        </mxCell>
        <mxCell id="EFb9O_KWn0DuL2CM1pZe-214" style="edgeStyle=orthogonalEdgeStyle;rounded=0;orthogonalLoop=1;jettySize=auto;html=1;exitX=0.5;exitY=1;exitDx=0;exitDy=0;entryX=0.5;entryY=0;entryDx=0;entryDy=0;fillColor=#1ba1e2;strokeColor=#006EAF;strokeWidth=5;" edge="1" parent="1" source="EFb9O_KWn0DuL2CM1pZe-168" target="EFb9O_KWn0DuL2CM1pZe-173">
          <mxGeometry relative="1" as="geometry" />
        </mxCell>
        <mxCell id="EFb9O_KWn0DuL2CM1pZe-215" style="edgeStyle=orthogonalEdgeStyle;rounded=0;orthogonalLoop=1;jettySize=auto;html=1;exitX=1;exitY=0.5;exitDx=0;exitDy=0;fillColor=#1ba1e2;strokeColor=#006EAF;strokeWidth=5;" edge="1" parent="1" source="EFb9O_KWn0DuL2CM1pZe-168" target="EFb9O_KWn0DuL2CM1pZe-174">
          <mxGeometry relative="1" as="geometry" />
        </mxCell>
        <mxCell id="EFb9O_KWn0DuL2CM1pZe-216" value="&lt;div&gt;&lt;font style=&quot;font-size: 70px;&quot;&gt;DEKOMPOZICIJA PROCESA 2&lt;/font&gt;&lt;/div&gt;&lt;div&gt;&lt;font style=&quot;font-size: 70px;&quot;&gt;&lt;br&gt;&lt;/font&gt;&lt;/div&gt;" style="text;html=1;align=center;verticalAlign=middle;resizable=0;points=[];autosize=1;strokeColor=none;fillColor=none;" vertex="1" parent="1">
          <mxGeometry x="-880" y="5070" width="1010" height="180" as="geometry" />
        </mxCell>
        <mxCell id="EFb9O_KWn0DuL2CM1pZe-217" value="&lt;div&gt;&lt;font style=&quot;font-size: 70px;&quot;&gt;DEKOMPOZICIJA PROCESA 3&lt;/font&gt;&lt;/div&gt;" style="text;html=1;align=center;verticalAlign=middle;resizable=0;points=[];autosize=1;strokeColor=none;fillColor=none;" vertex="1" parent="1">
          <mxGeometry x="490" y="6260" width="1010" height="100" as="geometry" />
        </mxCell>
        <mxCell id="EFb9O_KWn0DuL2CM1pZe-218" value="&lt;div&gt;&lt;font style=&quot;font-size: 70px;&quot;&gt;DEKOMPOZICIJA PROCESA 4&lt;/font&gt;&lt;/div&gt;" style="text;html=1;align=center;verticalAlign=middle;resizable=0;points=[];autosize=1;strokeColor=none;fillColor=none;" vertex="1" parent="1">
          <mxGeometry x="425" y="6770" width="1010" height="100" as="geometry" />
        </mxCell>
        <mxCell id="EFb9O_KWn0DuL2CM1pZe-219" value="&lt;div&gt;&lt;font style=&quot;font-size: 70px;&quot;&gt;DEKOMPOZICIJA PROCESA 5&lt;/font&gt;&lt;/div&gt;" style="text;html=1;align=center;verticalAlign=middle;resizable=0;points=[];autosize=1;strokeColor=none;fillColor=none;" vertex="1" parent="1">
          <mxGeometry x="-1670" y="8000" width="1010" height="100" as="geometry" />
        </mxCell>
      </root>
    </mxGraphModel>
  </diagram>
</mxfile>
